<svg xmlns="http://www.w3.org/2000/svg" width="672" height="673" style="shape-rendering:geometricPrecision;text-rendering:geometricPrecision;image-rendering:optimizeQuality;fill-rule:evenodd;clip-rule:evenodd"><path style="opacity:1" fill="#fcfefd" d="M-.5-.5h672v673H-.5V-.5z"/><path style="opacity:1" fill="#364547" d="M344.5 96.5c-.17 1.322.163 2.489 1 3.5a82.705 82.705 0 0 0-10.5-.5c-2.02.532-2.853 1.865-2.5 4-3.5.11-6.834.943-10 2.5-2.667 1.667-2.667 3.333 0 5a347.262 347.262 0 0 1-10.5 4.5c-.914-1.154-1.747-.987-2.5.5l4 1a133.323 133.323 0 0 1-8 4.5 14.72 14.72 0 0 0-1.5 5c-.342-2.119-1.175-2.453-2.5-1 .875-19.707 11.208-30.373 31-32 4.311.256 8.311 1.256 12 3z"/><path style="opacity:1" fill="#1d2b2c" d="M357.5 105.5c3.052 3.437 5.052 7.437 6 12-.617-.111-1.117-.444-1.5-1-.17 2.215-.837 4.215-2 6-3.384-1.773-5.551-.773-6.5 3a3.647 3.647 0 0 1-1.5-1c-2.574 3.744-6.074 6.077-10.5 7a26.585 26.585 0 0 0-2 3.5c-8.659 2.737-14.992 8.07-19 16a4.934 4.934 0 0 0 3 .5v3c-3.741-.424-6.741-2.091-9-5-.558-1.29-1.558-2.123-3-2.5 2.522-1.686 2.189-3.019-1-4 .482-1.008.648-2.175.5-3.5 2.56-1.019 5.393-2.352 8.5-4 3.462-5.08 8.128-8.747 14-11a14.972 14.972 0 0 1 3-3.5 21.57 21.57 0 0 1 8-3.5c-.262-1.478.071-2.811 1-4 2.482-1.844 5.149-3.177 8-4-.381-2.442.286-3.109 2-2a31.147 31.147 0 0 1 2-2z"/><path style="opacity:1" fill="#152324" d="M363.5 117.5c1.333 4.667 1.333 9.333 0 14a43.859 43.859 0 0 0-3 7 3.647 3.647 0 0 0 1 1.5c-3.881 2.718-7.215 5.884-10 9.5a42.992 42.992 0 0 1-9.5 5 128.507 128.507 0 0 0-.5 16h-1a145.053 145.053 0 0 0-.5-17c-4.667 2.667-9.333 2.667-14 0-.671.752-1.504 1.086-2.5 1v-3a4.934 4.934 0 0 1-3-.5c4.008-7.93 10.341-13.263 19-16a26.585 26.585 0 0 1 2-3.5c4.426-.923 7.926-3.256 10.5-7 .414.457.914.791 1.5 1 .949-3.773 3.116-4.773 6.5-3 1.163-1.785 1.83-3.785 2-6 .383.556.883.889 1.5 1z"/><path style="opacity:1" fill="#2c3b3e" d="M344.5 96.5c5.562 1.277 9.896 4.277 13 9a31.147 31.147 0 0 0-2 2c-1.714-1.109-2.381-.442-2 2-2.851.823-5.518 2.156-8 4-.929 1.189-1.262 2.522-1 4a21.57 21.57 0 0 0-8 3.5 14.972 14.972 0 0 0-3 3.5c-5.872 2.253-10.538 5.92-14 11-3.107 1.648-5.94 2.981-8.5 4 .148 1.325-.018 2.492-.5 3.5 3.189.981 3.522 2.314 1 4 1.442.377 2.442 1.21 3 2.5-1.347-.528-2.681-.695-4-.5a5289.922 5289.922 0 0 1-117 72.5c-.709-.904-1.709-1.237-3-1-1.13-3.813-3.463-6.813-7-9-1.602 1.05-2.435.383-2.5-2 .701 5.126-1.466 8.126-6.5 9a32.364 32.364 0 0 0-4 5.5 417.903 417.903 0 0 1-23 16c-1.663.265-3.163-.235-4.5-1.5l-2.5 2.5v4c-3.327.97-5.493-.197-6.5-3.5-1 2.667-2 2.667-3 0a2.428 2.428 0 0 0-.5 2c-1.238-1.714-1.905-3.714-2-6-.252-2.82.248-5.486 1.5-8a7.293 7.293 0 0 0 2 3c1.295-1.341 1.795-2.674 1.5-4 1.165.991 2.332 1.991 3.5 3 2.158-1.885 4.658-2.885 7.5-3 2.364-3.829 5.864-6.496 10.5-8 4.126 1.74 4.96 1.074 2.5-2 1.151-1.231 2.317-1.231 3.5 0 1.294-1.354 1.46-2.688.5-4a123.974 123.974 0 0 1 14-6 4.457 4.457 0 0 1 1.5 2 20.673 20.673 0 0 1 3.5-4 605498.25 605498.25 0 0 1 120-75 9.86 9.86 0 0 0 1-6c1.325-1.453 2.158-1.119 2.5 1a14.72 14.72 0 0 1 1.5-5 133.323 133.323 0 0 0 8-4.5l-4-1c.753-1.487 1.586-1.654 2.5-.5 3.47-1.419 6.97-2.919 10.5-4.5-2.667-1.667-2.667-3.333 0-5a24.131 24.131 0 0 1 10-2.5c-.353-2.135.48-3.468 2.5-4 3.46-.058 6.96.108 10.5.5-.837-1.011-1.17-2.178-1-3.5z"/><path style="opacity:1" fill="#f9fbfa" d="M351.5 149.5a4.934 4.934 0 0 1 3 .5 4412.945 4412.945 0 0 0 120 72.5v16a206.01 206.01 0 0 1-17 9c.086-.996-.248-1.829-1-2.5a171.238 171.238 0 0 1-24-13.5 87.45 87.45 0 0 1-11-6c-1.762-.762-2.762-2.096-3-4 .084-3.831-.583-7.498-2-11a29.984 29.984 0 0 0-3-9l-11-5.5c-4-.667-8-.667-12 0-.556.383-.889.883-1 1.5-1.788-.285-3.455.048-5 1-2.089 3.095-4.756 5.429-8 7-8.776-6.23-18.109-11.73-28-16.5a34.706 34.706 0 0 0-6.5-7.5 60.931 60.931 0 0 1-.5-11c-.166-5.344.001-10.677.5-16a42.992 42.992 0 0 0 9.5-5z"/><path style="opacity:1" fill="#233032" d="M363.5 131.5a189550.57 189550.57 0 0 0 122 75c.111.617.444 1.117 1 1.5h-4c.693 2.701-.307 4.868-3 6.5a19.06 19.06 0 0 0-2.5 7c-.671.752-1.504 1.086-2.5 1a4412.945 4412.945 0 0 1-120-72.5 4.934 4.934 0 0 0-3-.5c2.785-3.616 6.119-6.782 10-9.5a3.647 3.647 0 0 1-1-1.5 43.859 43.859 0 0 1 3-7z"/><path style="opacity:1" fill="#f9fcfb" d="M314.5 149.5c2.259 2.909 5.259 4.576 9 5 .166 9.006 0 18.006-.5 27a42.319 42.319 0 0 0-6.5 8.5 228.494 228.494 0 0 0-25 14.5 5.727 5.727 0 0 1-3 1c-5.071-8.224-12.404-11.391-22-9.5-.916.278-1.582.778-2 1.5-8.959 1.625-14.292 6.959-16 16-.982 3.462-1.315 7.129-1 11a189.669 189.669 0 0 0-38 22.5 11.803 11.803 0 0 0 2 3.5h-2l-18-11a67.968 67.968 0 0 0-1-15.5c.63-1.31 1.63-2.144 3-2.5a5289.922 5289.922 0 0 0 117-72.5c1.319-.195 2.653-.028 4 .5z"/><path style="opacity:1" fill="#2b393d" d="M340.5 170.5a72.367 72.367 0 0 1-.5 12c-1.328-2.169-2.994-2.502-5-1a20.933 20.933 0 0 0-5.5 9.5c-2.735 1.915-5.735 3.082-9 3.5v5a8.43 8.43 0 0 0-4 .5l2 1c-4.702.172-9.368.672-14 1.5a14.84 14.84 0 0 0 4 3.5c-1.777 2.152-3.277 1.985-4.5-.5-1.759 3.108-2.592 6.441-2.5 10-3.461-.354-5.961.979-7.5 4-.191-5.513-1.024-10.513-2.5-15a228.494 228.494 0 0 1 25-14.5 42.319 42.319 0 0 1 6.5-8.5c.5-8.994.666-17.994.5-27 .996.086 1.829-.248 2.5-1 4.667 2.667 9.333 2.667 14 0 .499 5.657.666 11.324.5 17z"/><path style="opacity:1" fill="#e7fad0" d="M288.5 205.5a17.902 17.902 0 0 1-6-4c-5.414-3.534-11.414-4.867-18-4 .418-.722 1.084-1.222 2-1.5 9.596-1.891 16.929 1.276 22 9.5z"/><path style="opacity:1" fill="#1f2e2e" d="M340.5 170.5h1a60.931 60.931 0 0 0 .5 11 34.706 34.706 0 0 1 6.5 7.5c9.891 4.77 19.224 10.27 28 16.5-1.29.558-2.123 1.558-2.5 3a41.047 41.047 0 0 0-1.5 13h-1a241.771 241.771 0 0 0-28.5-17c-.765.07-1.265.403-1.5 1-5.472 3.559-11.138 3.892-17 1-.672-.767-1.505-1.434-2.5-2a1349.305 1349.305 0 0 1-29.5 17c-.427-2.51-1.093-4.843-2-7l-2-9a5.727 5.727 0 0 0 3-1c1.476 4.487 2.309 9.487 2.5 15 1.539-3.021 4.039-4.354 7.5-4-.092-3.559.741-6.892 2.5-10 1.223 2.485 2.723 2.652 4.5.5a14.84 14.84 0 0 1-4-3.5 100.292 100.292 0 0 1 14-1.5l-2-1a8.43 8.43 0 0 1 4-.5v-5c3.265-.418 6.265-1.585 9-3.5a20.933 20.933 0 0 1 5.5-9.5c2.006-1.502 3.672-1.169 5 1 .499-3.986.666-7.986.5-12z"/><path style="opacity:1" fill="#e8fcd5" d="M416.5 210.5a22.755 22.755 0 0 0-4-5c-6.001-7.002-13.668-9.669-23-8 .111-.617.444-1.117 1-1.5 4-.667 8-.667 12 0l11 5.5a29.984 29.984 0 0 1 3 9z"/><path style="opacity:1" fill="#70d118" d="M264.5 197.5a183.729 183.729 0 0 1 10 3.5c-1.216 1.74-2.882 2.74-5 3 .88 1.356 1.214 2.856 1 4.5a4.934 4.934 0 0 0-3 .5c-1.083 2.056-2.75 3.389-5 4l1 1a11.142 11.142 0 0 1-5.5 3.5 22.981 22.981 0 0 0-2 5c-1.194-2.123-1.86-4.457-2-7a8.905 8.905 0 0 1-3 4 8.43 8.43 0 0 0-.5 4c-.617-.111-1.117-.444-1.5-1a40.914 40.914 0 0 1-.5-9c1.708-9.041 7.041-14.375 16-16z"/><path style="opacity:1" fill="#fbfdfc" d="M371.5 221.5a687.783 687.783 0 0 0 2 7 12.793 12.793 0 0 1-2 4.5l1 1.5c3.49-2.604 5.824-1.604 7 3 3.024 2.022 6.357 3.022 10 3v14h-36c-.838-.342-1.172-1.008-1-2-.98-6.956-4.647-11.956-11-15v-32c.235-.597.735-.93 1.5-1a241.771 241.771 0 0 1 28.5 17z"/><path style="opacity:1" fill="#103e0f" d="M376.5 205.5c-2.243 5.074-3.243 10.408-3 16h-1a41.047 41.047 0 0 1 1.5-13c.377-1.442 1.21-2.442 2.5-3z"/><path style="opacity:1" fill="#52c10b" d="M397.5 198.5c5.187 1.26 9.853 3.593 14 7a18.155 18.155 0 0 1-2 5.5 144.666 144.666 0 0 0-18 15 44.569 44.569 0 0 1-8 3.5 4.934 4.934 0 0 1-.5 3c-.77-1.098-1.603-1.098-2.5 0a16.339 16.339 0 0 1-2-5 37.38 37.38 0 0 0 4.5-9c.667-1.333 1.333-1.333 2 0 .777-4.249 3.277-6.583 7.5-7 .042-3.085 1.375-5.419 4-7-1.505-1.342-2.172-3.008-2-5 1.291.237 2.291-.096 3-1z"/><path style="opacity:1" fill="#f8fbfa" d="M324.5 206.5v31c-6.409 3.468-10.409 8.801-12 16a343.225 343.225 0 0 1-37 1v-14c8.798-3.468 14.465-9.801 17-19a1349.305 1349.305 0 0 0 29.5-17c.995.566 1.828 1.233 2.5 2z"/><path style="opacity:1" fill="#75c539" d="M389.5 197.5c9.332-1.669 16.999.998 23 8h-1c-4.147-3.407-8.813-5.74-14-7-13.539.036-20.873 6.869-22 20.5.24 2.016.574 4.016 1 6 .184 1.376.851 2.209 2 2.5a16.339 16.339 0 0 0 2 5h-2c-2.988-2.981-4.654-6.648-5-11-.243-5.592.757-10.926 3-16 3.244-1.571 5.911-3.905 8-7 1.545-.952 3.212-1.285 5-1z"/><path style="opacity:1" fill="#6ad10d" d="M397.5 198.5c-.709.904-1.709 1.237-3 1-.172 1.992.495 3.658 2 5-2.625 1.581-3.958 3.915-4 7-4.223.417-6.723 2.751-7.5 7-.667-1.333-1.333-1.333-2 0a37.38 37.38 0 0 1-4.5 9c-1.149-.291-1.816-1.124-2-2.5a65.384 65.384 0 0 1-1-6c1.127-13.631 8.461-20.464 22-20.5z"/><path style="opacity:1" fill="#2f3d3f" d="M514.5 201.5c.816 1.39 2.483 2.557 5 3.5-2.269-.374-4.602-.374-7 0a36.48 36.48 0 0 1-1 6.5 184.221 184.221 0 0 0-15 12 303.634 303.634 0 0 1-15 7c-1.12-1.333-2.453-1.833-4-1.5.776 1.77.61 3.603-.5 5.5l-1-6c-.179 3.525-.679 6.859-1.5 10v-16c.996.086 1.829-.248 2.5-1a19.06 19.06 0 0 1 2.5-7c2.693-1.632 3.693-3.799 3-6.5h4c-.556-.383-.889-.883-1-1.5 4.312-1.821 8.645-3.654 13-5.5 5.516-.817 10.85-.651 16 .5z"/><path style="opacity:1" fill="#334144" d="M180.5 206.5a20.673 20.673 0 0 0-3.5 4 4.457 4.457 0 0 0-1.5-2 123.974 123.974 0 0 0-14 6c.96 1.312.794 2.646-.5 4-1.183-1.231-2.349-1.231-3.5 0 2.46 3.074 1.626 3.74-2.5 2-4.636 1.504-8.136 4.171-10.5 8-2.842.115-5.342 1.115-7.5 3a604.676 604.676 0 0 0-3.5-3c.295 1.326-.205 2.659-1.5 4a7.293 7.293 0 0 1-2-3c-1.252 2.514-1.752 5.18-1.5 8-3.124-17.764 3.876-29.931 21-36.5a64.218 64.218 0 0 1 16 0c5.269 1.31 10.269 3.143 15 5.5z"/><path style="opacity:1" fill="#57c30d" d="M264.5 197.5c6.586-.867 12.586.466 18 4v2c-1.307 1.302-1.307 2.635 0 4-1.797 1.631-2.964 3.631-3.5 6a20.431 20.431 0 0 1-5.5 1.5c-.88 1.356-1.214 2.856-1 4.5-4.481.446-7.814 2.613-10 6.5-3.3 1.572-6.3 3.405-9 5.5l-3-8a8.43 8.43 0 0 1 .5-4 8.905 8.905 0 0 0 3-4c.14 2.543.806 4.877 2 7a22.981 22.981 0 0 1 2-5 11.142 11.142 0 0 0 5.5-3.5l-1-1c2.25-.611 3.917-1.944 5-4a4.934 4.934 0 0 1 3-.5c.214-1.644-.12-3.144-1-4.5 2.118-.26 3.784-1.26 5-3a183.729 183.729 0 0 0-10-3.5z"/><path style="opacity:1" fill="#a3b6bb" d="M341.5 205.5v32c-5.698-1.29-11.364-1.29-17 0v-31c5.862 2.892 11.528 2.559 17-1z"/><path style="opacity:1" fill="#228d0b" d="M412.5 207.5c4.827 6.997 5.161 14.33 1 22-2.588 1.557-5.421 2.557-8.5 3-2.151 1.312-3.651 3.145-4.5 5.5a72.367 72.367 0 0 1-12 .5c-1.001-1.289-.834-2.622.5-4 3.078-3.786 6.911-6.453 11.5-8-.826-.951-.992-1.951-.5-3l1 1c3.002-3.76 6.835-6.427 11.5-8-.872-2.557-.872-5.557 0-9z"/><path style="opacity:1" fill="#349f0f" d="M411.5 205.5h1v2c-.872 3.443-.872 6.443 0 9-4.665 1.573-8.498 4.24-11.5 8l-1-1c-.492 1.049-.326 2.049.5 3-4.589 1.547-8.422 4.214-11.5 8-1.334 1.378-1.501 2.711-.5 4h-3c-2.947-1.281-5.281-3.281-7-6h2c.897-1.098 1.73-1.098 2.5 0a4.934 4.934 0 0 0 .5-3 44.569 44.569 0 0 0 8-3.5 144.666 144.666 0 0 1 18-15 18.155 18.155 0 0 0 2-5.5z"/><path style="opacity:1" fill="#7bc455" d="M248.5 213.5a40.914 40.914 0 0 0 .5 9c.383.556.883.889 1.5 1l3 8v1a18.924 18.924 0 0 1 3 5h-2a71.775 71.775 0 0 0-7-13c-.315-3.871.018-7.538 1-11z"/><path style="opacity:1" fill="#359f0f" d="M284.5 205.5c1.88.578 2.88 1.912 3 4-1.315 2.343-1.315 4.677 0 7-8.225 1.189-13.058 5.856-14.5 14-.739-1.074-1.739-1.741-3-2-3.1 4.111-6.934 7.111-11.5 9h-2a18.924 18.924 0 0 0-3-5c2.832 1.081 5.498.915 8-.5a214.976 214.976 0 0 1 22-20.5 9.86 9.86 0 0 0 1-6z"/><path style="opacity:1" fill="#42b00c" d="M282.5 203.5c1 .333 1.667 1 2 2a9.86 9.86 0 0 1-1 6 214.976 214.976 0 0 0-22 20.5c-2.502 1.415-5.168 1.581-8 .5v-1c2.7-2.095 5.7-3.928 9-5.5 2.186-3.887 5.519-6.054 10-6.5-.214-1.644.12-3.144 1-4.5a20.431 20.431 0 0 0 5.5-1.5c.536-2.369 1.703-4.369 3.5-6-1.307-1.365-1.307-2.698 0-4z"/><path style="opacity:1" fill="#edfddf" d="M371.5 221.5h2c.346 4.352 2.012 8.019 5 11 1.719 2.719 4.053 4.719 7 6l4 2c-3.643.022-6.976-.978-10-3-1.176-4.604-3.51-5.604-7-3l-1-1.5a12.793 12.793 0 0 0 2-4.5 687.783 687.783 0 0 1-2-7z"/><path style="opacity:1" fill="#77928b" d="M418.5 221.5c.238 1.904 1.238 3.238 3 4-1.5 3.83-2.167 7.83-2 12-1.643.02-2.976-.647-4-2-.929 1.189-1.262 2.522-1 4-2.174-.25-3.841-1.25-5-3a498.808 498.808 0 0 0 7.5-10c.198-1.882.698-3.548 1.5-5z"/><path style="opacity:1" fill="#1e2b2d" d="M193.5 221.5c-1.37.356-2.37 1.19-3 2.5a67.968 67.968 0 0 1 1 15.5c-.802-1.452-1.302-3.118-1.5-5 0 4.427-1.167 4.927-3.5 1.5a179.24 179.24 0 0 0 0-11.5c-5.541 5.134-11.541 9.467-18 13 .219 1.175-.114 2.175-1 3a248.193 248.193 0 0 1-16.5 10 11.333 11.333 0 0 1-1.5 3.5c2.378.974 2.044 1.641-1 2 5.333.667 5.333 1.333 0 2 2.833.167 4.333 1.667 4.5 4.5l16-2c.499 5.657.666 11.324.5 17a303.038 303.038 0 0 1-8.5-9 4.933 4.933 0 0 1-2.5 1 13.139 13.139 0 0 0-6-2c.237-1.291-.096-2.291-1-3v-3c-10.091-2.426-17.091-8.426-21-18a2.428 2.428 0 0 1 .5-2c1 2.667 2 2.667 3 0 1.007 3.303 3.173 4.47 6.5 3.5v-4l2.5-2.5c1.337 1.265 2.837 1.765 4.5 1.5a417.903 417.903 0 0 0 23-16 32.364 32.364 0 0 1 4-5.5c5.034-.874 7.201-3.874 6.5-9 .065 2.383.898 3.05 2.5 2 3.537 2.187 5.87 5.187 7 9 1.291-.237 2.291.096 3 1z"/><path style="opacity:1" fill="#abbbc0" d="M247.5 224.5a71.775 71.775 0 0 1 7 13 416.637 416.637 0 0 0-23 15 5.727 5.727 0 0 0-3-1c-5.392-3.57-11.058-3.903-17-1a11.803 11.803 0 0 1-2-3.5 189.669 189.669 0 0 1 38-22.5z"/><path style="opacity:1" fill="#258d0f" d="M282.5 201.5a17.902 17.902 0 0 0 6 4l2 9c1.093 6.706-.574 12.539-5 17.5a8.43 8.43 0 0 1-4 .5v4c-2.321.271-4.321-.396-6-2-1.211.774-1.211 1.607 0 2.5-5.208 1.397-10.541 1.897-16 1.5 0-.667-.333-1-1-1 4.566-1.889 8.4-4.889 11.5-9 1.261.259 2.261.926 3 2 1.442-8.144 6.275-12.811 14.5-14-1.315-2.323-1.315-4.657 0-7-.12-2.088-1.12-3.422-3-4-.333-1-1-1.667-2-2v-2z"/><path style="opacity:1" fill="#2f8021" d="M412.5 205.5a22.755 22.755 0 0 1 4 5c1.417 3.502 2.084 7.169 2 11-.802 1.452-1.302 3.118-1.5 5a498.808 498.808 0 0 1-7.5 10c-2.473-.412-3.806.588-4 3a61.281 61.281 0 0 1-15 1h-1l-4-2h3a72.367 72.367 0 0 0 12-.5c.849-2.355 2.349-4.188 4.5-5.5 3.079-.443 5.912-1.443 8.5-3 4.161-7.67 3.827-15.003-1-22v-2z"/><path style="opacity:1" fill="#152223" d="M191.5 239.5a2.428 2.428 0 0 1-.5 2c-1.666-.84-1.833-.34-.5 1.5a6.802 6.802 0 0 0-3 1.5c-.672 3.486-2.006 6.653-4 9.5 2.119.342 2.453 1.175 1 2.5-2.141-2.519-4.141-2.519-6 0-2.817.595-5.15 1.928-7 4-.991 6.479-1.324 13.146-1 20-.904-.709-1.237-1.709-1-3a145.053 145.053 0 0 0-.5-17l-16 2c-.167-2.833-1.667-4.333-4.5-4.5 5.333-.667 5.333-1.333 0-2 3.044-.359 3.378-1.026 1-2a11.333 11.333 0 0 0 1.5-3.5 248.193 248.193 0 0 0 16.5-10c.886-.825 1.219-1.825 1-3 6.459-3.533 12.459-7.866 18-13a179.24 179.24 0 0 1 0 11.5c2.333 3.427 3.5 2.927 3.5-1.5.198 1.882.698 3.548 1.5 5z"/><path style="opacity:1" fill="#308124" d="M290.5 214.5c.907 2.157 1.573 4.49 2 7-2.535 9.199-8.202 15.532-17 19a77.1 77.1 0 0 1-13-1h-3v-1c5.459.397 10.792-.103 16-1.5-1.211-.893-1.211-1.726 0-2.5 1.679 1.604 3.679 2.271 6 2v-4a8.43 8.43 0 0 0 4-.5c4.426-4.961 6.093-10.794 5-17.5z"/><path style="opacity:1" fill="#92a2a7" d="M421.5 225.5a87.45 87.45 0 0 0 11 6 21.127 21.127 0 0 1-1 9 18.08 18.08 0 0 0-3.5 2 126.286 126.286 0 0 1-.5 5c-4.843-1.918-9.177-4.584-13-8-.262-1.478.071-2.811 1-4 1.024 1.353 2.357 2.02 4 2-.167-4.17.5-8.17 2-12z"/><path style="opacity:1" fill="#f6faf9" d="M409.5 236.5c1.159 1.75 2.826 2.75 5 3 3.823 3.416 8.157 6.082 13 8a40.943 40.943 0 0 0 7 5c-.641.982-1.307 1.982-2 3a169.926 169.926 0 0 1-26 1c-.989-5.475-1.322-11.142-1-17 .194-2.412 1.527-3.412 4-3z"/><path style="opacity:1" fill="#152325" d="M537.5 225.5c1.921 18.165-5.746 30.165-23 36-.819 2.805-1.319 5.805-1.5 9l-1-9-3 3c-3.241-2.69-7.075-3.69-11.5-3-.106-3.541-1.106-6.708-3-9.5l1-1a736.006 736.006 0 0 0 17-6.5c.224-6.776 3.891-11.276 11-13.5 1.23-2.693 3.063-4.86 5.5-6.5 1.16 2.297 2.16 1.964 3-1 1.044 1.123 1.71 2.456 2 4 .497-7.003 1.163-7.337 2-1 .383-.556.883-.889 1.5-1z"/><path style="opacity:1" fill="#f6faf9" d="M254.5 237.5h4c.667 0 1 .333 1 1v19c-8.007.166-16.007 0-24-.5-1.57-1.397-2.904-2.897-4-4.5a416.637 416.637 0 0 1 23-15z"/><path style="opacity:1" fill="#a0b1b4" d="M432.5 231.5a171.238 171.238 0 0 0 24 13.5c.752.671 1.086 1.504 1 2.5-.366 1.195-1.199 1.861-2.5 2-7.457-3.149-14.291-2.149-20.5 3a40.943 40.943 0 0 1-7-5c.171-1.379.338-3.046.5-5a18.08 18.08 0 0 1 3.5-2 21.127 21.127 0 0 0 1-9z"/><path style="opacity:1" fill="#243031" d="m191.5 239.5 18 11c-.828 3.501-2.828 6.168-6 8-.83 2.516-1.83 4.85-3 7a3495.183 3495.183 0 0 1-16-9c1.453-1.325 1.119-2.158-1-2.5 1.994-2.847 3.328-6.014 4-9.5a6.802 6.802 0 0 1 3-1.5c-1.333-1.84-1.166-2.34.5-1.5a2.428 2.428 0 0 0 .5-2z"/><path style="opacity:1" fill="#142023" d="M405.5 239.5c-.322 5.858.011 11.525 1 17a4.934 4.934 0 0 1-.5 3c-4.299-2.907-9.133-4.407-14.5-4.5a55.155 55.155 0 0 1-1-14.5 61.281 61.281 0 0 0 15-1z"/><path style="opacity:1" fill="#273639" d="M341.5 237.5c6.353 3.044 10.02 8.044 11 15-.996-.086-1.829.248-2.5 1a9.568 9.568 0 0 0-3-3c-5.629 7.118-12.796 12.118-21.5 15-2.336 1.73-2.336 3.23 0 4.5-1.473.71-2.14 1.876-2 3.5-2.785-.433-5.119-1.766-7-4a106.21 106.21 0 0 1-20 1c-7.413-.628-14.413.039-21 2-.802 1.452-1.302 3.118-1.5 5-2.832-1.291-5.832-1.957-9-2-1.986.069-3.486.735-4.5 2-.904-.709-1.237-1.709-1-3-7.187-.325-14.187.009-21 1h-1a24.935 24.935 0 0 0-.5-7c-1.655-.302-2.988-1.636-4-4-2.884 1.884-5.051 4.384-6.5 7.5a64.515 64.515 0 0 0-11.5 6.5c-1.465-.83-2.965-.996-4.5-.5 4.452 1.182 4.786 2.682 1 4.5-1.444-1.481-2.111-1.148-2 1-4.095-2.517-6.428-6.184-7-11v-3h5a8.43 8.43 0 0 1 .5-4l1 1a40.673 40.673 0 0 1 9.5-3c2.598-1.18 4.264-3.18 5-6 1.823-1.247 3.823-1.914 6-2 .14-1.624-.527-2.79-2-3.5.228-.399.562-.565 1-.5a5.727 5.727 0 0 1 3 1c1.096 1.603 2.43 3.103 4 4.5 7.993.5 15.993.666 24 .5v-18h1a61.234 61.234 0 0 0 1 15c4.818 1.312 9.485 1.312 14 0a343.225 343.225 0 0 0 37-1c1.591-7.199 5.591-12.532 12-16 5.636-1.29 11.302-1.29 17 0z"/><path style="opacity:1" fill="#172020" d="M260.5 239.5h2c.418.722 1.084 1.222 2 1.5 3.652.499 7.318.665 11 .5v13c-4.515 1.312-9.182 1.312-14 0a61.234 61.234 0 0 1-1-15z"/><path style="opacity:1" fill="#0e340a" d="M262.5 239.5a77.1 77.1 0 0 0 13 1v1a60.931 60.931 0 0 1-11-.5c-.916-.278-1.582-.778-2-1.5z"/><path style="opacity:1" fill="#f6f9fa" d="M184.5 256.5c5.35 3.028 10.684 6.028 16 9a67.898 67.898 0 0 0 2 7c.572 4.816 2.905 8.483 7 11v31c-1.723-1.753-3.223-3.753-4.5-6a230.274 230.274 0 0 0-12.5-25 2574.107 2574.107 0 0 1-14-27c1.859-2.519 3.859-2.519 6 0z"/><path style="opacity:1" fill="#273536" d="M514.5 201.5c6.316 1.329 11.649 4.329 16 9-1.249 1.278-2.749 2.278-4.5 3-1.113-1.829-2.613-2.663-4.5-2.5l1 1c-4.523 2.025-7.856 5.192-10 9.5-5.402 2.234-10.069 5.734-14 10.5a70.459 70.459 0 0 0-17.5 5.5l-1-1c-1.614 2.737-3.781 4.903-6.5 6.5 2.115.424 2.948 1.591 2.5 3.5l-3 3c-.317-1.801-.984-2.134-2-1-.188 3.59-1.688 6.424-4.5 8.5-5.838-.835-10.838.998-15 5.5a3.647 3.647 0 0 0 1 1.5c-4.557 4.295-9.89 7.295-16 9a12.17 12.17 0 0 0-4.5 3.5 4.457 4.457 0 0 0-1.5-2c-1.196.346-1.196.846 0 1.5a8.43 8.43 0 0 1-4 .5c1.306-.967 1.973-2.301 2-4-5.165.291-10.331.624-15.5 1-2.929.025-5.429.691-7.5 2a45.676 45.676 0 0 1-14.5-2 24.935 24.935 0 0 0-.5 7h15v1a69.302 69.302 0 0 0-16 1v-12a380.934 380.934 0 0 1-39-1c11.338.167 22.672 0 34-.5a514.75 514.75 0 0 1-32-1.5c-.051-2.563.283-5.229 1-8 2.652-4.022 3.486-3.688 2.5 1 1.706-.808 2.539-2.141 2.5-4 9.054-.306 18.054.028 27 1l3-1.5a604.989 604.989 0 0 1-35-1.5h36v-14h1a55.155 55.155 0 0 0 1 14.5c5.367.093 10.201 1.593 14.5 4.5a4.934 4.934 0 0 0 .5-3c8.692.331 17.359-.002 26-1a185.977 185.977 0 0 0 2-3c6.209-5.149 13.043-6.149 20.5-3 1.301-.139 2.134-.805 2.5-2a206.01 206.01 0 0 0 17-9c.821-3.141 1.321-6.475 1.5-10l1 6c1.11-1.897 1.276-3.73.5-5.5 1.547-.333 2.88.167 4 1.5a303.634 303.634 0 0 0 15-7 184.221 184.221 0 0 1 15-12 36.48 36.48 0 0 0 1-6.5c2.398-.374 4.731-.374 7 0-2.517-.943-4.184-2.11-5-3.5z"/><path style="opacity:1" fill="#324043" d="M228.5 251.5c-.438-.065-.772.101-1 .5 1.473.71 2.14 1.876 2 3.5-2.177.086-4.177.753-6 2-.736 2.82-2.402 4.82-5 6a40.673 40.673 0 0 0-9.5 3l-1-1a8.43 8.43 0 0 0-.5 4h-5v3a67.898 67.898 0 0 1-2-7c1.17-2.15 2.17-4.484 3-7 3.172-1.832 5.172-4.499 6-8h2c5.942-2.903 11.608-2.57 17 1z"/><path style="opacity:1" fill="#f6fafa" d="M486.5 256.5a6828.787 6828.787 0 0 1-28.5 56 12.93 12.93 0 0 0-.5 5h-1a307.162 307.162 0 0 1 1-35c4.514-3.175 6.847-7.509 7-13a36.354 36.354 0 0 0 2-4.5 241.116 241.116 0 0 1 18-10.5c1.022.355 1.689 1.022 2 2z"/><path style="opacity:1" fill="#1e2d2e" d="M530.5 210.5c3.671 4.343 6.004 9.343 7 15-.617.111-1.117.444-1.5 1-.837-6.337-1.503-6.003-2 1-.29-1.544-.956-2.877-2-4-.84 2.964-1.84 3.297-3 1-2.437 1.64-4.27 3.807-5.5 6.5-7.109 2.224-10.776 6.724-11 13.5a736.006 736.006 0 0 1-17 6.5l-1 1c1.894 2.792 2.894 5.959 3 9.5 4.425-.69 8.259.31 11.5 3l3-3 1 9c.181-3.195.681-6.195 1.5-9a6401.64 6401.64 0 0 0 1 160c-6.732-1.184-13.732-1.184-21 0v-144a73.133 73.133 0 0 0-1-17 35.775 35.775 0 0 1-7-4c-.311-.978-.978-1.645-2-2a241.116 241.116 0 0 0-18 10.5 36.354 36.354 0 0 1-2 4.5c.262-1.478-.071-2.811-1-4-.689 1.838-1.022 3.505-1 5-1.789-5.018-2.956-5.018-3.5 0-3.875-.99-7.542-.99-11 0a40.796 40.796 0 0 1-6.5 4c-.886.825-1.219 1.825-1 3-2.292-.256-4.459.077-6.5 1a51.727 51.727 0 0 1-1.5 9.5l1 .5a6.802 6.802 0 0 0 1.5-3c.816 1.323 1.983 1.989 3.5 2a116.374 116.374 0 0 1-21 14c-.312-4.955-2.479-8.955-6.5-12a4.934 4.934 0 0 1-.5-3l16-10a8.43 8.43 0 0 0 4-.5c-1.196-.654-1.196-1.154 0-1.5a4.457 4.457 0 0 1 1.5 2 12.17 12.17 0 0 1 4.5-3.5c6.11-1.705 11.443-4.705 16-9a3.647 3.647 0 0 1-1-1.5c4.162-4.502 9.162-6.335 15-5.5 2.812-2.076 4.312-4.91 4.5-8.5 1.016-1.134 1.683-.801 2 1l3-3c.448-1.909-.385-3.076-2.5-3.5 2.719-1.597 4.886-3.763 6.5-6.5l1 1a70.459 70.459 0 0 1 17.5-5.5c3.931-4.766 8.598-8.266 14-10.5 2.144-4.308 5.477-7.475 10-9.5l-1-1c1.887-.163 3.387.671 4.5 2.5 1.751-.722 3.251-1.722 4.5-3z"/><path style="opacity:1" fill="#f8fbfa" d="M350.5 269.5a380.934 380.934 0 0 0 39 1v13a84.902 84.902 0 0 0-13 .5c1.693 3.517.86 6.35-2.5 8.5-.977-2.759-.144-4.759 2.5-6-2.343-1.225-4.177-.559-5.5 2-.525 3.367-.025 6.534 1.5 9.5-.158 3.478-1.158 6.645-3 9.5.363.683.696 1.35 1 2a303.577 303.577 0 0 0-18.5 12c-.383-.556-.883-.889-1.5-1l-9-6v-41c3.405-.538 6.405-1.871 9-4z"/><path style="opacity:1" fill="#fafcfc" d="M323.5 273.5v43c-3.92.627-7.253 2.293-10 5a150.866 150.866 0 0 1-20-12c2.525-10.229-.475-18.062-9-23.5a8.43 8.43 0 0 0-4-.5c-2.273-.457-3.606-1.79-4-4v-10c6.854.324 13.521-.009 20-1a106.21 106.21 0 0 0 20-1c1.881 2.234 4.215 3.567 7 4z"/><path style="opacity:1" fill="#eff4f3" d="m426.5 276.5-16 10c-.667 0-1 .333-1 1l-2-1-2-1v-10c2.071-1.309 4.571-1.975 7.5-2a950.948 950.948 0 0 1 15.5-1c-.027 1.699-.694 3.033-2 4z"/><path style="opacity:1" fill="#162424" d="M464.5 269.5c-.153 5.491-2.486 9.825-7 13a307.162 307.162 0 0 0-1 35 46.924 46.924 0 0 0-16 2c.332-11.02-.001-22.02-1-33-.607.124-.94.457-1 1-1.517-.011-2.684-.677-3.5-2a6.802 6.802 0 0 1-1.5 3l-1-.5a51.727 51.727 0 0 0 1.5-9.5c2.041-.923 4.208-1.256 6.5-1-.219-1.175.114-2.175 1-3a40.796 40.796 0 0 0 6.5-4c3.458-.99 7.125-.99 11 0 .544-5.018 1.711-5.018 3.5 0-.022-1.495.311-3.162 1-5 .929 1.189 1.262 2.522 1 4z"/><path style="opacity:1" fill="#151921" d="M405.5 275.5v5h-15c-.163-2.357.003-4.69.5-7a45.676 45.676 0 0 0 14.5 2z"/><path style="opacity:1" fill="#96a3a7" d="M178.5 256.5c4.57 8.944 9.237 17.944 14 27a4.934 4.934 0 0 1-.5 3l-4-4c-.667 2.667-1.333 2.667-2 0l-3 5c-.535-1.771-1.369-2.104-2.5-1a28.931 28.931 0 0 0-1.5 4c-.417-1.256-1.25-1.923-2.5-2l-5-10v-18c1.85-2.072 4.183-3.405 7-4z"/><path style="opacity:1" fill="#ecf1f1" d="M260.5 277.5v6h-1a4.934 4.934 0 0 0-3 .5c-.663 1.518-1.663 2.685-3 3.5-.975-1.693-2.308-3.193-4-4.5a138.461 138.461 0 0 1-11-7.5c6.813-.991 13.813-1.325 21-1-.237 1.291.096 2.291 1 3z"/><path style="opacity:1" fill="#161a20" d="M275.5 272.5v10c-4.267-2.272-8.933-3.272-14-3 .237 1.291-.096 2.291-1 3v-5c1.014-1.265 2.514-1.931 4.5-2 3.168.043 6.168.709 9 2 .198-1.882.698-3.548 1.5-5z"/><path style="opacity:1" fill="#aeb7b9" d="M296.5 270.5c-6.479.991-13.146 1.324-20 1v10h-1v-9c6.587-1.961 13.587-2.628 21-2z"/><path style="opacity:1" fill="#182626" d="M352.5 252.5c-.172.992.162 1.658 1 2a604.989 604.989 0 0 0 35 1.5l-3 1.5a190.177 190.177 0 0 0-27-1c.039 1.859-.794 3.192-2.5 4 .986-4.688.152-5.022-2.5-1-.717 2.771-1.051 5.437-1 8a514.75 514.75 0 0 0 32 1.5c-11.328.5-22.662.667-34 .5-2.595 2.129-5.595 3.462-9 4v40a386.75 386.75 0 0 1-1.5-28 270.698 270.698 0 0 1-6.5-.5 11.333 11.333 0 0 1-1.5-3.5c-3.494-2.013-6.327-4.68-8.5-8-.14-1.624.527-2.79 2-3.5-2.336-1.27-2.336-2.77 0-4.5 8.704-2.882 15.871-7.882 21.5-15a9.568 9.568 0 0 1 3 3c.671-.752 1.504-1.086 2.5-1z"/><path style="opacity:1" fill="#112e14" d="M275.5 282.5c-4.805.987-9.805 1.321-15 1v-1c.904-.709 1.237-1.709 1-3 5.067-.272 9.733.728 14 3z"/><path style="opacity:1" fill="#083c08" d="M405.5 281.5v4c-5.108-1.833-10.442-2.499-16-2v-1a69.302 69.302 0 0 1 16-1z"/><path style="opacity:1" fill="#1b2829" d="M237.5 275.5c-1.744 5.41-5.411 8.743-11 10-.886.825-1.219 1.825-1 3v32c-4.628-2.377-9.628-3.377-15-3h-1v-34c-.111-2.148.556-2.481 2-1 3.786-1.818 3.452-3.318-1-4.5 1.535-.496 3.035-.33 4.5.5a64.515 64.515 0 0 1 11.5-6.5c1.449-3.116 3.616-5.616 6.5-7.5 1.012 2.364 2.345 3.698 4 4 .497 2.31.663 4.643.5 7z"/><path style="opacity:1" fill="#f1fdec" d="m389.5 283.5-4 2c-.667 0-1 .333-1 1-8.905 4.476-12.572 11.809-11 22-.992-.172-1.658.162-2 1h-1a43.836 43.836 0 0 0-1-2c1.842-2.855 2.842-6.022 3-9.5-1.525-2.966-2.025-6.133-1.5-9.5 1.323-2.559 3.157-3.225 5.5-2-2.644 1.241-3.477 3.241-2.5 6 3.36-2.15 4.193-4.983 2.5-8.5a84.902 84.902 0 0 1 13-.5z"/><path style="opacity:1" fill="#233436" d="M151.5 264.5c.904.709 1.237 1.709 1 3 2.175.182 4.175.849 6 2a4.933 4.933 0 0 0 2.5-1 303.038 303.038 0 0 0 8.5 9c-.237 1.291.096 2.291 1 3v45a284.057 284.057 0 0 0-1.5 24 14.719 14.719 0 0 1-2.5 6.5 16.77 16.77 0 0 1 2 6.5 185.15 185.15 0 0 0-2 35h-6a68.159 68.159 0 0 1-3 16 160.723 160.723 0 0 1-.5-31 41.71 41.71 0 0 1 2.5-13 11.456 11.456 0 0 1-1-2.5c1.692-2.935 2.358-6.102 2-9.5h-3a147.728 147.728 0 0 1-3 24 1264.427 1264.427 0 0 1-3-40v-77z"/><path style="opacity:1" fill="#fafdfb" d="m171.5 278.5 5 10a724.85 724.85 0 0 1 16.5 32c.759 1.563 1.926 2.563 3.5 3a11.743 11.743 0 0 0-3 5c-.838.342-1.172 1.008-1 2h-1a81.316 81.316 0 0 0-2.5 3c-.877 6.749-.544 13.416 1 20l1-1c.432 2.572 1.932 3.906 4.5 4a14.698 14.698 0 0 0 3 3.5 37.344 37.344 0 0 0 11 3.5v1a840.27 840.27 0 0 1-.5 41 84.567 84.567 0 0 0-9.5 12.5l-19 10.5a43.836 43.836 0 0 0-2-1 50.725 50.725 0 0 0-6.5-5c-.5-47.999-.667-95.999-.5-144z"/><path style="opacity:1" fill="#8a9a9b" d="M237.5 275.5h1a138.461 138.461 0 0 0 11 7.5c1.692 1.307 3.025 2.807 4 4.5-2.594 4.325-4.594 8.991-6 14h-1a331.486 331.486 0 0 1-21-13c-.219-1.175.114-2.175 1-3 5.589-1.257 9.256-4.59 11-10z"/><path style="opacity:1" fill="#fbfdfc" d="M494.5 277.5v144a60.05 60.05 0 0 1-11 7c-5.427-4.558-11.427-8.391-18-11.5-1.281-1.409-2.281-2.909-3-4.5-1.213-2.725-3.046-5.059-5.5-7a881.746 881.746 0 0 1-.5-42c3.398.32 6.732-.013 10-1a19.745 19.745 0 0 1 5.5-5 42.47 42.47 0 0 0 1.5-5 5.727 5.727 0 0 1 1-3c3.845-4.891 4.511-10.224 2-16a43.836 43.836 0 0 0-2-1c.368-3.535-.632-6.535-3-9a739.43 739.43 0 0 1 23-46z"/><path style="opacity:1" fill="#7fca35" d="M275.5 281.5h1c.394 2.21 1.727 3.543 4 4v1a43.145 43.145 0 0 0-11-2 9.86 9.86 0 0 0-6 1 68.378 68.378 0 0 1-4.5 6c-2.47-1.451-4.637-1.117-6.5 1a46.493 46.493 0 0 1 7-9h1c5.195.321 10.195-.013 15-1v-1z"/><path style="opacity:1" fill="#f9fcfa" d="m438.5 287.5 2 33v1c-3.137 2.799-5.471 6.132-7 10l-2 2c-1.369 2.254-2.369 4.754-3 7.5a62.81 62.81 0 0 1 3 10.5c-8.644 5.633-17.311 11.3-26 17v-43a18.67 18.67 0 0 1 5-3 3.647 3.647 0 0 1 1.5 1c.855-3.101 2.355-5.768 4.5-8a19.048 19.048 0 0 0 1-6v-8a116.374 116.374 0 0 0 21-14z"/><path style="opacity:1" fill="#fafcfc" d="M225.5 288.5a331.486 331.486 0 0 0 21 13c-.165 3.35.002 6.683.5 10l5 10c1.011.837 2.178 1.17 3.5 1h1l3 2v44a9614.002 9614.002 0 0 1-24-15c.548-1.188.881-2.355 1-3.5a73.036 73.036 0 0 0-4-20.5c-1.142-1.326-2.476-2.326-4-3a6.547 6.547 0 0 1-3-3v-35z"/><path style="opacity:1" fill="#8ed14d" d="M384.5 286.5c-3.425 3.989-6.592 8.322-9.5 13-.659 3.388-.492 6.721.5 10a29.417 29.417 0 0 1 2 7c-1.843-2.353-3.177-5.02-4-8-1.572-10.191 2.095-17.524 11-22z"/><path style="opacity:1" fill="#234e23" d="M410.5 286.5a4.934 4.934 0 0 0 .5 3c4.021 3.045 6.188 7.045 6.5 12v8h-1c.313-3.542-.021-6.875-1-10-.152-3.641-1.818-6.307-5-8-.734-1.208-1.067-2.541-1-4 0-.667.333-1 1-1z"/><path style="opacity:1" fill="#e9fdde" d="M280.5 286.5v-1a8.43 8.43 0 0 1 4 .5c8.525 5.438 11.525 13.271 9 23.5h-1v-2a32.462 32.462 0 0 0-.5-8c-.278-.916-.778-1.582-1.5-2-.16-1.653-.826-2.986-2-4 .086-.996-.248-1.829-1-2.5a43.842 43.842 0 0 0-7-4.5z"/><path style="opacity:1" fill="#a7b8bc" d="M192.5 283.5a230.274 230.274 0 0 1 12.5 25c1.277 2.247 2.777 4.247 4.5 6v3c-2.351 1.57-5.018 2.403-8 2.5-1.931.902-3.597 2.069-5 3.5-1.574-.437-2.741-1.437-3.5-3a724.85 724.85 0 0 0-16.5-32c1.25.077 2.083.744 2.5 2a28.931 28.931 0 0 1 1.5-4c1.131-1.104 1.965-.771 2.5 1l3-5c.667 2.667 1.333 2.667 2 0l4 4a4.934 4.934 0 0 0 .5-3z"/><path style="opacity:1" fill="#6fce10" d="M269.5 284.5c-1.109.79-2.442 1.29-4 1.5a18.08 18.08 0 0 1 2 3.5 165.68 165.68 0 0 1-3 11 24.725 24.725 0 0 1-7 6.5c-1.284.684-2.451.517-3.5-.5a41.362 41.362 0 0 0-2.5 6 27.195 27.195 0 0 1-3-5c-.131-5.401 1.203-10.401 4-15 1.863-2.117 4.03-2.451 6.5-1a68.378 68.378 0 0 0 4.5-6 9.86 9.86 0 0 1 6-1z"/><path style="opacity:1" fill="#51bf0b" d="M269.5 284.5c3.762.191 7.429.858 11 2a8.43 8.43 0 0 0 .5 4 55.747 55.747 0 0 1 5.5 4.5c-5.096 1.261-8.429 4.428-10 9.5-4.419 4.78-9.752 7.78-16 9v3c-1.984-.117-3.65.55-5 2-1.826-1.647-3.16-3.647-4-6a41.362 41.362 0 0 1 2.5-6c1.049 1.017 2.216 1.184 3.5.5a24.725 24.725 0 0 0 7-6.5 165.68 165.68 0 0 0 3-11 18.08 18.08 0 0 0-2-3.5c1.558-.21 2.891-.71 4-1.5z"/><path style="opacity:1" fill="#213134" d="M323.5 273.5c2.173 3.32 5.006 5.987 8.5 8a11.333 11.333 0 0 0 1.5 3.5c2.359.208 4.526.374 6.5.5.17 9.509.67 18.842 1.5 28v1c-4.712 1.014-9.212.348-13.5-2l-1 2-1-4-1 2a604.989 604.989 0 0 0-1.5-35v-4z"/><path style="opacity:1" fill="#6bce11" d="M375.5 309.5c-.992-3.279-1.159-6.612-.5-10 2.908-4.678 6.075-9.011 9.5-13 0-.667.333-1 1-1 2.42.208 4.753-.126 7-1 1.743 2.762 2.077 5.595 1 8.5l2 1c-1.438 1.241-2.938 1.741-4.5 1.5-.131 3.556-1.298 6.556-3.5 9-3.333 0-6 1.333-8 4-1.189.929-2.522 1.262-4 1z"/><path style="opacity:1" fill="#a4b6bc" d="M486.5 256.5a35.775 35.775 0 0 0 7 4 73.133 73.133 0 0 1 1 17 739.43 739.43 0 0 0-23 46c-2.058-1.433-4.392-2.1-7-2a37.122 37.122 0 0 1-7-4 12.93 12.93 0 0 1 .5-5 6828.787 6828.787 0 0 0 28.5-56z"/><path style="opacity:1" fill="#a4d385" d="M259.5 283.5a46.493 46.493 0 0 0-7 9c-2.797 4.599-4.131 9.599-4 15v2c-.973-2.448-1.306-5.115-1-8 1.406-5.009 3.406-9.675 6-14 1.337-.815 2.337-1.982 3-3.5a4.934 4.934 0 0 1 3-.5z"/><path style="opacity:1" fill="#41ae0c" d="m407.5 286.5 2 1c-.067 1.459.266 2.792 1 4a24.93 24.93 0 0 1 1 8c-2.51.491-4.844 1.491-7 3a201.132 201.132 0 0 0-14 15c1.141.925 1.141 1.759 0 2.5-3.077 1.352-6.077 1.186-9-.5h3c-.282-2.847-.282-5.513 0-8a66.615 66.615 0 0 0 6-2.5 47.05 47.05 0 0 1 5-6.5 81.805 81.805 0 0 0 7-2l1-2a58.42 58.42 0 0 0 7-3c-2.198-2.594-3.198-5.594-3-9z"/><path style="opacity:1" fill="#b2bab9" d="M438.5 287.5c.06-.543.393-.876 1-1a273.104 273.104 0 0 1 1 33v1l-2-33z"/><path style="opacity:1" fill="#53c00e" d="M389.5 283.5c5.558-.499 10.892.167 16 2l2 1c-.198 3.406.802 6.406 3 9a58.42 58.42 0 0 1-7 3l-1 2a81.805 81.805 0 0 1-7 2 47.05 47.05 0 0 0-5 6.5 66.615 66.615 0 0 1-6 2.5c-.282 2.487-.282 5.153 0 8h-3c-1.105-1.1-2.438-1.767-4-2v-1a29.417 29.417 0 0 0-2-7c1.478.262 2.811-.071 4-1 2-2.667 4.667-4 8-4 2.202-2.444 3.369-5.444 3.5-9 1.562.241 3.062-.259 4.5-1.5l-2-1c1.077-2.905.743-5.738-1-8.5a15.418 15.418 0 0 1-7 1l4-2z"/><path style="opacity:1" fill="#39a610" d="M280.5 286.5a43.842 43.842 0 0 1 7 4.5c.752.671 1.086 1.504 1 2.5a24.935 24.935 0 0 1-.5 7c-1.667 1.333-3.333 1.333-5 0a47.02 47.02 0 0 0-3.5 5.5 8.43 8.43 0 0 1-4 .5c.009 1.808-.491 3.475-1.5 5a105.65 105.65 0 0 1-11 7l-1-1c-.492 1.049-.326 2.049.5 3a44.093 44.093 0 0 0-3 2h-4c-3.601-3.614-5.935-7.947-7-13v-2a27.195 27.195 0 0 0 3 5c.84 2.353 2.174 4.353 4 6 1.35-1.45 3.016-2.117 5-2v-3c6.248-1.22 11.581-4.22 16-9 1.571-5.072 4.904-8.239 10-9.5a55.747 55.747 0 0 0-5.5-4.5 8.43 8.43 0 0 1-.5-4z"/><path style="opacity:1" fill="#e0fcd6" d="M246.5 301.5h1c-.306 2.885.027 5.552 1 8 1.065 5.053 3.399 9.386 7 13-1.322.17-2.489-.163-3.5-1l-5-10a50.464 50.464 0 0 1-.5-10z"/><path style="opacity:1" fill="#164610" d="M371.5 309.5c.342-.838 1.008-1.172 2-1 .823 2.98 2.157 5.647 4 8v1a18.924 18.924 0 0 1 3 5c0 .667-.333 1-1 1-2.194-2.4-3.861-5.066-5-8a598.896 598.896 0 0 0-3-6z"/><path style="opacity:1" fill="#279210" d="M410.5 291.5c3.182 1.693 4.848 4.359 5 8a16.873 16.873 0 0 1-1 8c-1.024 1.353-2.357 2.02-4 2a65.751 65.751 0 0 1-5 12.5c-6.854 2.636-13.854 3.136-21 1.5-1.208-.734-2.541-1.067-4-1a18.924 18.924 0 0 0-3-5c1.562.233 2.895.9 4 2 2.923 1.686 5.923 1.852 9 .5 1.141-.741 1.141-1.575 0-2.5a201.132 201.132 0 0 1 14-15c2.156-1.509 4.49-2.509 7-3a24.93 24.93 0 0 0-1-8z"/><path style="opacity:1" fill="#28960b" d="M288.5 293.5c1.174 1.014 1.84 2.347 2 4a31.116 31.116 0 0 1-1 11 28.043 28.043 0 0 1-5 1.5l1 1a7.293 7.293 0 0 0-3 2c.551 1.398.884 2.732 1 4a26.857 26.857 0 0 1-9.5 6.5c.027-1.917.861-3.584 2.5-5-4.677-2.077-7.677-.744-9 4h-8a44.093 44.093 0 0 1 3-2c-.826-.951-.992-1.951-.5-3l1 1a105.65 105.65 0 0 0 11-7c1.009-1.525 1.509-3.192 1.5-5a8.43 8.43 0 0 0 4-.5 47.02 47.02 0 0 1 3.5-5.5c1.667 1.333 3.333 1.333 5 0 .497-2.31.663-4.643.5-7z"/><path style="opacity:1" fill="#07340f" d="M292.5 307.5v2c-.56 2.301-1.06 4.634-1.5 7a55.157 55.157 0 0 0-5.5 8c-.667 0-1-.333-1-1a11.743 11.743 0 0 1 3-5 140.074 140.074 0 0 1 5-11z"/><path style="opacity:1" fill="#172425" d="M292.5 309.5h1a150.866 150.866 0 0 0 20 12c1.047.578.88 1.244-.5 2-1.388-1.054-2.888-1.22-4.5-.5l1 1c-2.979 3.177-5.312 6.677-7 10.5l-17-10a55.157 55.157 0 0 1 5.5-8c.44-2.366.94-4.699 1.5-7z"/><path style="opacity:1" fill="#28811c" d="M415.5 299.5c.979 3.125 1.313 6.458 1 10-1.493 6.677-5.16 11.677-11 15a84.029 84.029 0 0 1-16 1c-2.198.38-3.865-.287-5-2 7.146 1.636 14.146 1.136 21-1.5a65.751 65.751 0 0 0 5-12.5c1.643.02 2.976-.647 4-2a16.873 16.873 0 0 0 1-8z"/><path style="opacity:1" fill="#0e3709" d="m456.5 317.5-6 2c-2.995-.206-5.662.46-8 2h-2v-2a46.924 46.924 0 0 1 16-2z"/><path style="opacity:1" fill="#173e0b" d="M210.5 317.5c5.372-.377 10.372.623 15 3v3h-1c0-.667-.333-1-1-1a59.282 59.282 0 0 0-13-5z"/><path style="opacity:1" fill="#2e3c3e" d="M323.5 277.5a604.989 604.989 0 0 1 1.5 35l1-2 1 4 1-2c4.288 2.348 8.788 3.014 13.5 2l9 6c-2.152 3.914-4.319 4.248-6.5 1-3.414 3.176-6.08 6.842-8 11a112.053 112.053 0 0 1-7.5 6.5 74.086 74.086 0 0 0-12 1.5 152.004 152.004 0 0 1-10.5 5c-1.735-1.182-2.735-2.849-3-5-.383.556-.883.889-1.5 1a51.569 51.569 0 0 1 1-7c1.688-3.823 4.021-7.323 7-10.5l-1-1c1.612-.72 3.112-.554 4.5.5 1.38-.756 1.547-1.422.5-2 2.747-2.707 6.08-4.373 10-5v-39z"/><path style="opacity:1" fill="#2a8c18" d="M290.5 297.5c.722.418 1.222 1.084 1.5 2 .497 2.646.664 5.313.5 8a140.074 140.074 0 0 0-5 11 8.43 8.43 0 0 0-4 .5 27.98 27.98 0 0 1-8 6 608.402 608.402 0 0 1-16-.5l-3-2h11c1.323-4.744 4.323-6.077 9-4-1.639 1.416-2.473 3.083-2.5 5a26.857 26.857 0 0 0 9.5-6.5c-.116-1.268-.449-2.602-1-4a7.293 7.293 0 0 1 3-2l-1-1a28.043 28.043 0 0 0 5-1.5 31.116 31.116 0 0 0 1-11z"/><path style="opacity:1" fill="#75bb3c" d="M209.5 317.5h1a59.282 59.282 0 0 1 13 5c-2.292-.256-4.459.077-6.5 1-3.98-2.567-8.146-3.234-12.5-2a4.934 4.934 0 0 0-3 .5 76.332 76.332 0 0 0-8 6.5 11.743 11.743 0 0 1 3-5c1.403-1.431 3.069-2.598 5-3.5 2.982-.097 5.649-.93 8-2.5z"/><path style="opacity:1" fill="#377b32" d="M287.5 318.5a11.743 11.743 0 0 0-3 5 49.783 49.783 0 0 0-9 3 170.744 170.744 0 0 1-15-1h-1v-1c5.358.238 10.691.404 16 .5a27.98 27.98 0 0 0 8-6 8.43 8.43 0 0 1 4-.5z"/><path style="opacity:1" fill="#d7f4d3" d="M416.5 309.5h1a19.048 19.048 0 0 1-1 6c-2.145 2.232-3.645 4.899-4.5 8a3.647 3.647 0 0 0-1.5-1 18.67 18.67 0 0 0-5 3v-1c5.84-3.323 9.507-8.323 11-15z"/><path style="opacity:1" fill="#9dd86c" d="M440.5 321.5h2l-3 4a25.619 25.619 0 0 0-6 6c1.529-3.868 3.863-7.201 7-10z"/><path style="opacity:1" fill="#6bb347" d="M456.5 317.5h1a37.122 37.122 0 0 0 7 4c.953 2.11 2.619 3.277 5 3.5 1.323.816 1.989 1.983 2 3.5a11.743 11.743 0 0 0-5-3c-4.673-3.666-10.007-5.666-16-6l6-2z"/><path style="opacity:1" fill="#f5f8f8" d="M380.5 322.5c1.459-.067 2.792.266 4 1 1.135 1.713 2.802 2.38 5 2 0 .667.333 1 1 1v41c-1.28 1.431-2.947 2.098-5 2a141.81 141.81 0 0 1-21.5-13 45.342 45.342 0 0 1 .5-11c-.042-3.496-.709-6.829-2-10a230.542 230.542 0 0 1 17-12c.667 0 1-.333 1-1z"/><path style="opacity:1" fill="#144714" d="M405.5 324.5v1a61.281 61.281 0 0 1-15 1c-.667 0-1-.333-1-1a84.029 84.029 0 0 0 16-1z"/><path style="opacity:1" fill="#cfe9c3" d="M464.5 321.5c2.608-.1 4.942.567 7 2 2.368 2.465 3.368 5.465 3 9l-3-4c-.011-1.517-.677-2.684-2-3.5-2.381-.223-4.047-1.39-5-3.5z"/><path style="opacity:1" fill="#f7faf9" d="M284.5 323.5c0 .667.333 1 1 1l17 10a51.569 51.569 0 0 0-1 7v16a36.195 36.195 0 0 0-9 5c-4.316 2.64-8.649 5.306-13 8-1.761-.535-3.094-1.535-4-3v-41a49.783 49.783 0 0 1 9-3z"/><path style="opacity:1" fill="#66cc0d" d="M433.5 331.5a25.619 25.619 0 0 1 6-6 37.76 37.76 0 0 0 6.5-4c2.402.649 4.902.649 7.5 0 2.134.015 4.134.515 6 1.5-.698.971-.698 2.137 0 3.5l-1 2c-1.22-1.211-2.387-1.211-3.5 0 .263 1.451.096 2.784-.5 4a19.215 19.215 0 0 0-7 3.5c.951.718 1.117 1.551.5 2.5a21.53 21.53 0 0 0-5 6 3.647 3.647 0 0 0-1.5-1 18.074 18.074 0 0 1-8 2v-14z"/><path style="opacity:1" fill="#243133" d="M370.5 309.5h1a598.896 598.896 0 0 1 3 6c-2.036-2.838-3.536-2.505-4.5 1l-1-2c-3.879 4.348-8.712 7.348-14.5 9-1.526 3.154-2.193 6.487-2 10-2.808.193-5.475.86-8 2-1.483 4.981-4.816 8.147-10 9.5-1.914 1.413-3.247 3.247-4 5.5a247.447 247.447 0 0 1-10 3c.17 1.322-.163 2.489-1 3.5a79.79 79.79 0 0 0-11 5.5l-3-2c-1.905 2.109-3.572 1.609-5-1.5l2-1c-.228-.399-.562-.565-1-.5v-16c.617-.111 1.117-.444 1.5-1 .265 2.151 1.265 3.818 3 5a152.004 152.004 0 0 0 10.5-5 74.086 74.086 0 0 1 12-1.5 112.053 112.053 0 0 0 7.5-6.5c1.92-4.158 4.586-7.824 8-11 2.181 3.248 4.348 2.914 6.5-1 .617.111 1.117.444 1.5 1a303.577 303.577 0 0 1 18.5-12z"/><path style="opacity:1" fill="#6ed313" d="M204.5 321.5c2.894.056 5.561.89 8 2.5a24.362 24.362 0 0 1-10 1.5 33.36 33.36 0 0 0 4 7.5c.118 4.055-1.716 6.555-5.5 7.5a4.934 4.934 0 0 0-.5 3c-1.644-.214-3.144.12-4.5 1-.772-1.349-1.939-2.182-3.5-2.5-.923-2.041-1.256-4.208-1-6.5.801-1.542 1.134-3.208 1-5-.172-.992.162-1.658 1-2a76.332 76.332 0 0 1 8-6.5 4.934 4.934 0 0 1 3-.5z"/><path style="opacity:1" fill="#def2cc" d="M474.5 332.5c.65.304 1.317.637 2 1 2.511 5.776 1.845 11.109-2 16 1.28-5.653 1.28-11.32 0-17z"/><path style="opacity:1" fill="#57c20b" d="M204.5 321.5c4.354-1.234 8.52-.567 12.5 2 2.041-.923 4.208-1.256 6.5-1 .667 0 1 .333 1 1v2a621.124 621.124 0 0 0 3 6c-2.663 5.489-6.996 8.989-13 10.5-6.005 6.811-13.005 10.311-21 10.5-2.533-5.604-3.2-11.271-2-17-.256 2.292.077 4.459 1 6.5 1.561.318 2.728 1.151 3.5 2.5 1.356-.88 2.856-1.214 4.5-1a4.934 4.934 0 0 1 .5-3c3.784-.945 5.618-3.445 5.5-7.5a33.36 33.36 0 0 1-4-7.5 24.362 24.362 0 0 0 10-1.5c-2.439-1.61-5.106-2.444-8-2.5z"/><path style="opacity:1" fill="#1a292a" d="M260.5 325.5c4.982.553 9.982.887 15 1v41c-4.745-.155-9.578.179-14.5 1a924.222 924.222 0 0 1-.5-43z"/><path style="opacity:1" fill="#152223" d="M405.5 325.5v43c.065.438-.101.772-.5 1-4.652-1.683-9.485-2.35-14.5-2v-41a61.281 61.281 0 0 0 15-1z"/><path style="opacity:1" fill="#162424" d="M362.5 335.5c1.291 3.171 1.958 6.504 2 10a45.342 45.342 0 0 0-.5 11 141.81 141.81 0 0 0 21.5 13c.111.617.444 1.117 1 1.5a29.517 29.517 0 0 0-4.5 2.5 31.485 31.485 0 0 0-3.5 9c-.457.798-1.124 1.131-2 1a724.511 724.511 0 0 0-22.5-13 77.519 77.519 0 0 1-12.5 7c-5.653 1.28-11.32 1.28-17 0-.667 0-1-.333-1-1 .963-1.798.296-3.132-2-4 .825-.886 1.825-1.219 3-1-.711-3.781.455-6.781 3.5-9a4.934 4.934 0 0 0 .5-3 4.934 4.934 0 0 0 3-.5c5.25-6.921 11.917-11.921 20-15 1.645-1.8 2.978-3.8 4-6 1.612-.72 3.112-.554 4.5.5a81.316 81.316 0 0 1 2.5-3z"/><path style="opacity:1" fill="#ebfedf" d="M431.5 333.5c-.125 5.703.208 11.37 1 17v1h-1a62.81 62.81 0 0 0-3-10.5c.631-2.746 1.631-5.246 3-7.5z"/><path style="opacity:1" fill="#59c111" d="M450.5 319.5c5.993.334 11.327 2.334 16 6 .221 1.235.888 2.235 2 3-.825.886-1.825 1.219-3 1 .184 2.821-1.149 4.488-4 5-.886.825-1.219 1.825-1 3a49.698 49.698 0 0 1-10 6c-1.619 5.334-5.119 7-10.5 5-.617.949-.451 1.782.5 2.5a4.934 4.934 0 0 1-3 .5 20.69 20.69 0 0 1-5-1 105.279 105.279 0 0 1-1-17l2-2v14a18.074 18.074 0 0 0 8-2 3.647 3.647 0 0 1 1.5 1 21.53 21.53 0 0 1 5-6c.617-.949.451-1.782-.5-2.5a19.215 19.215 0 0 1 7-3.5c.596-1.216.763-2.549.5-4 1.113-1.211 2.28-1.211 3.5 0l1-2c-.698-1.363-.698-2.529 0-3.5a12.862 12.862 0 0 0-6-1.5c-2.598.649-5.098.649-7.5 0a37.76 37.76 0 0 1-6.5 4l3-4c2.338-1.54 5.005-2.206 8-2z"/><path style="opacity:1" fill="#e9fae4" d="M228.5 326.5c1.524.674 2.858 1.674 4 3a73.036 73.036 0 0 1 4 20.5c-.119 1.145-.452 2.312-1 3.5h-1c-1.306-.967-1.973-2.301-2-4 2.152-8.332.818-15.999-4-23z"/><path style="opacity:1" fill="#2c970e" d="M472.5 333.5c1.298 3.908 1.132 7.908-.5 12a3.647 3.647 0 0 1-1.5 1c-2.321-2.734-4.321-2.568-6 .5-1.284.684-2.451.517-3.5-.5a4.934 4.934 0 0 0-.5 3c-7.82.984-7.82 1.817 0 2.5l-12 8a31.6 31.6 0 0 1-8-.5h-1a30.564 30.564 0 0 0-7-8v-1a20.69 20.69 0 0 0 5 1c-.485 4.659 1.348 5.992 5.5 4a8.43 8.43 0 0 0 .5-4c1.788.285 3.455-.048 5-1a305.455 305.455 0 0 1 18-15.5c1.333-.667 2.667-.667 4 0a35.193 35.193 0 0 1 1 4.5 9.86 9.86 0 0 0 1-6z"/><path style="opacity:1" fill="#7abd42" d="M191.5 330.5h1c.134 1.792-.199 3.458-1 5-1.2 5.729-.533 11.396 2 17v1c-2.785-3.956-4.119-8.456-4-13.5-.078-3.407.588-6.574 2-9.5z"/><path style="opacity:1" fill="#e2facb" d="M191.5 330.5c-1.412 2.926-2.078 6.093-2 9.5-.119 5.044 1.215 9.544 4 13.5 0 .667.333 1 1 1l1 2c-2.568-.094-4.068-1.428-4.5-4l-1 1c-1.544-6.584-1.877-13.251-1-20a81.316 81.316 0 0 1 2.5-3z"/><path style="opacity:1" fill="#2d960c" d="M224.5 325.5c1.294.79 2.461 1.79 3.5 3a37.838 37.838 0 0 1 3.5 10.5 21.351 21.351 0 0 1-2.5 9.5c-.914-1.154-1.747-.987-2.5.5.951.718 1.117 1.551.5 2.5-1.699.906-3.533 1.239-5.5 1-.214 1.644.12 3.144 1 4.5a112.063 112.063 0 0 0-15.5 4.5c-4.816-1.348-8.983-3.681-12.5-7-.667 0-1-.333-1-1v-1c7.995-.189 14.995-3.689 21-10.5 6.004-1.511 10.337-5.011 13-10.5a621.124 621.124 0 0 1-3-6z"/><path style="opacity:1" fill="#3bab0c" d="M466.5 325.5a11.743 11.743 0 0 1 5 3c-.284 1.915.049 3.581 1 5a9.86 9.86 0 0 1-1 6 35.193 35.193 0 0 0-1-4.5c-1.333-.667-2.667-.667-4 0a305.455 305.455 0 0 0-18 15.5c-1.545.952-3.212 1.285-5 1a8.43 8.43 0 0 1-.5 4c-4.152 1.992-5.985.659-5.5-4a4.934 4.934 0 0 0 3-.5c-.951-.718-1.117-1.551-.5-2.5 5.381 2 8.881.334 10.5-5a49.698 49.698 0 0 0 10-6c-.219-1.175.114-2.175 1-3 2.851-.512 4.184-2.179 4-5 1.175.219 2.175-.114 3-1-1.112-.765-1.779-1.765-2-3z"/><path style="opacity:1" fill="#348622" d="M224.5 323.5h1a6.547 6.547 0 0 0 3 3c4.818 7.001 6.152 14.668 4 23h-1c-1.876 2.384-4.042 4.718-6.5 7a4.934 4.934 0 0 0-.5 3c-1.983-.343-3.317.324-4 2-3.86.308-7.526.975-11 2a37.344 37.344 0 0 1-11-3.5 14.698 14.698 0 0 1-3-3.5l-1-2c3.517 3.319 7.684 5.652 12.5 7a112.063 112.063 0 0 1 15.5-4.5c-.88-1.356-1.214-2.856-1-4.5 1.967.239 3.801-.094 5.5-1 .617-.949.451-1.782-.5-2.5.753-1.487 1.586-1.654 2.5-.5a21.351 21.351 0 0 0 2.5-9.5 37.838 37.838 0 0 0-3.5-10.5 14.698 14.698 0 0 0-3.5-3v-2z"/><path style="opacity:1" fill="#228c12" d="m471.5 328.5 3 4c1.28 5.68 1.28 11.347 0 17a5.727 5.727 0 0 0-1 3l-2 1c-3.685 1.18-6.685 3.347-9 6.5a67.63 67.63 0 0 1-18 1.5c-1.653-.16-2.986-.826-4-2a31.6 31.6 0 0 0 8 .5l12-8c-7.82-.683-7.82-1.516 0-2.5a4.934 4.934 0 0 1 .5-3c1.049 1.017 2.216 1.184 3.5.5 1.679-3.068 3.679-3.234 6-.5a3.647 3.647 0 0 0 1.5-1c1.632-4.092 1.798-8.092.5-12-.951-1.419-1.284-3.085-1-5z"/><path style="opacity:1" fill="#276722" d="M231.5 349.5c.009 1.808-.491 3.475-1.5 5-2.531 1.423-4.365 3.423-5.5 6-1.208.734-2.541 1.067-4 1 .683-1.676 2.017-2.343 4-2a4.934 4.934 0 0 1 .5-3c2.458-2.282 4.624-4.616 6.5-7z"/><path style="opacity:1" fill="#043d09" d="M432.5 351.5a30.564 30.564 0 0 1 7 8 11.743 11.743 0 0 1-5-3c-1.442-1.32-2.108-2.986-2-5z"/><path style="opacity:1" fill="#698979" d="M231.5 349.5h1c.027 1.699.694 3.033 2 4a68.826 68.826 0 0 0-6 7.5c-1.401.41-2.734.91-4 1.5v-2c1.135-2.577 2.969-4.577 5.5-6 1.009-1.525 1.509-3.192 1.5-5z"/><path style="opacity:1" fill="#2f7620" d="M471.5 353.5c-1.936 3.16-4.603 5.66-8 7.5a49.83 49.83 0 0 0-7 2.5h-1c-3.958.249-7.624-.418-11-2a67.63 67.63 0 0 0 18-1.5c2.315-3.153 5.315-5.32 9-6.5z"/><path style="opacity:1" fill="#082c0a" d="M224.5 360.5v3c-5.007.251-10.007.584-15 1v-1c3.474-1.025 7.14-1.692 11-2 1.459.067 2.792-.266 4-1z"/><path style="opacity:1" fill="#d0f3c7" d="M473.5 352.5a42.47 42.47 0 0 1-1.5 5 19.745 19.745 0 0 0-5.5 5 25.879 25.879 0 0 1-10 1 49.83 49.83 0 0 1 7-2.5c3.397-1.84 6.064-4.34 8-7.5l2-1z"/><path style="opacity:1" fill="#8d9ca4" d="M234.5 353.5h1a9614.002 9614.002 0 0 0 24 15c-5.056 2.723-8.723 6.723-11 12a230.986 230.986 0 0 1-16-9.5 34.706 34.706 0 0 1-6.5-7.5 12.93 12.93 0 0 0-.5 5c-.951-1.419-1.284-3.085-1-5v-1a28.208 28.208 0 0 1 4-1.5 68.826 68.826 0 0 1 6-7.5z"/><path style="opacity:1" fill="#f5f9f8" d="M439.5 362.5c.667 0 1 .333 1 1v36c.237 1.291-.096 2.291-1 3-6.972-4.155-13.972-8.322-21-12.5a341.749 341.749 0 0 1-2-9.5c6.297-4.153 12.63-8.32 19-12.5 1.964-1.451 3.297-3.284 4-5.5z"/><path style="opacity:1" fill="#f8fbfa" d="M248.5 380.5a21.127 21.127 0 0 1-1 9 1142.218 1142.218 0 0 0-8 5 280.528 280.528 0 0 0-13.5 8 577.896 577.896 0 0 1-.5-34 12.93 12.93 0 0 1 .5-5 34.706 34.706 0 0 0 6.5 7.5 230.986 230.986 0 0 0 16 9.5z"/><path style="opacity:1" fill="#162225" d="M440.5 363.5c2.716.178 5.383.678 8 1.5 2.027 1.396 2.36 3.062 1 5 1.507 1.473 2.174 3.307 2 5.5a4720.44 4720.44 0 0 0-2 27c-.12 1.086-.787 1.753-2 2-1.605-.93-3.105-.93-4.5 0a39.445 39.445 0 0 1-2.5-5v-36z"/><path style="opacity:1" fill="#f2f7f7" d="M376.5 383.5v1c-11.285 1.978-22.952 2.645-35 2v-9a77.519 77.519 0 0 0 12.5-7 724.511 724.511 0 0 1 22.5 13z"/><path style="opacity:1" fill="#0f221d" d="M434.5 356.5a11.743 11.743 0 0 0 5 3h1c1.014 1.174 2.347 1.84 4 2 3.376 1.582 7.042 2.249 11 2 .167 14.004 0 28.004-.5 42-.317-1.801-.984-2.134-2-1l-1-5c-.236 1.619-1.069 2.619-2.5 3a4720.44 4720.44 0 0 1 2-27c.174-2.193-.493-4.027-2-5.5 1.36-1.938 1.027-3.604-1-5a34.033 34.033 0 0 0-8-1.5c0-.667-.333-1-1-1l-4-3a5.727 5.727 0 0 1-1-3z"/><path style="opacity:1" fill="#f5f9f9" d="M323.5 376.5c0 .667.333 1 1 1v9a454.485 454.485 0 0 1-36-1c-.086-.996.248-1.829 1-2.5a359.867 359.867 0 0 0 22-12.5c3.786 2.559 7.786 4.559 12 6z"/><path style="opacity:1" fill="#263436" d="M259.5 325.5h1c-.167 14.337 0 28.671.5 43 4.922-.821 9.755-1.155 14.5-1 .906 1.465 2.239 2.465 4 3 4.351-2.694 8.684-5.36 13-8 1.692 3.369 1.026 6.202-2 8.5l2 1a17.65 17.65 0 0 1-6-.5v4c-6.544-.184-10.544 2.816-12 9a112.07 112.07 0 0 1-13 5.5c-1.333.667-1.333 1.333 0 2l-2 1c-2.436.124-4.769-.376-7-1.5v4c-1.624-.14-2.79.527-3.5 2-.98-1.759-1.647-3.426-2-5-1.83 3.164-4.33 3.831-7.5 2 2.602-1.642 5.269-3.308 8-5a21.127 21.127 0 0 0 1-9c2.277-5.277 5.944-9.277 11-12v-43z"/><path style="opacity:1" fill="#233032" d="M431.5 351.5h1c-.108 2.014.558 3.68 2 5a5.727 5.727 0 0 0 1 3c-1.547 2.08-2.881 4.413-4 7a49.45 49.45 0 0 0-14.5 10c-1.016-1.134-1.683-.801-2 1a4.457 4.457 0 0 0-1.5-2c-1.028 1.861-2.528 3.195-4.5 4 .497 1.698.33 3.365-.5 5a81.805 81.805 0 0 1-7 2c-.886.825-1.219 1.825-1 3-1.984-.117-3.65.55-5 2a7.248 7.248 0 0 1-2.5-2c-1.965 2.579-4.465 4.579-7.5 6-1.88-.43-3.88-.43-6 0a52.334 52.334 0 0 1-3-11v-1c.876.131 1.543-.202 2-1a31.485 31.485 0 0 1 3.5-9 29.517 29.517 0 0 1 4.5-2.5c-.556-.383-.889-.883-1-1.5 2.053.098 3.72-.569 5-2 5.015-.35 9.848.317 14.5 2 .399-.228.565-.562.5-1 8.689-5.7 17.356-11.367 26-17z"/><path style="opacity:1" fill="#1b292a" d="M374.5 315.5c1.139 2.934 2.806 5.6 5 8a230.542 230.542 0 0 0-17 12 81.316 81.316 0 0 0-2.5 3c-1.388-1.054-2.888-1.22-4.5-.5a23.554 23.554 0 0 1-4 6c-8.083 3.079-14.75 8.079-20 15a4.934 4.934 0 0 1-3 .5 4.934 4.934 0 0 1-.5 3c-3.045 2.219-4.211 5.219-3.5 9-1.175-.219-2.175.114-3 1 2.296.868 2.963 2.202 2 4-4.214-1.441-8.214-3.441-12-6a359.867 359.867 0 0 1-22 12.5c-.752.671-1.086 1.504-1 2.5a34.163 34.163 0 0 1-1 10c-2.272 4.771-5.938 7.937-11 9.5-.752.671-1.086 1.504-1 2.5v30c-3.578-1.089-7.245-1.255-11-.5-1.619.236-2.619 1.069-3 2.5h-1l-2-34c.418-.722 1.084-1.222 2-1.5-1.216-1.74-2.882-2.74-5-3 1.072-1.284 2.405-1.617 4-1-1.123-1.044-2.456-1.71-4-2a58.568 58.568 0 0 1 16-7.5 6.802 6.802 0 0 0 1.5-3c2.5-1.167 4.333-3 5.5-5.5 3.384-1.21 6.05-3.377 8-6.5v-4a17.65 17.65 0 0 0 6 .5l-2-1c3.026-2.298 3.692-5.131 2-8.5a36.195 36.195 0 0 1 9-5c.438-.065.772.101 1 .5l-2 1c1.428 3.109 3.095 3.609 5 1.5l3 2a79.79 79.79 0 0 1 11-5.5c.837-1.011 1.17-2.178 1-3.5 3.289-.91 6.622-1.91 10-3 .753-2.253 2.086-4.087 4-5.5 5.184-1.353 8.517-4.519 10-9.5a23.142 23.142 0 0 1 8-2c-.193-3.513.474-6.846 2-10 5.788-1.652 10.621-4.652 14.5-9l1 2c.964-3.505 2.464-3.838 4.5-1z"/><path style="opacity:1" fill="#8d9ca1" d="M376.5 384.5a52.334 52.334 0 0 0 3 11c1.841 5.515 5.508 8.849 11 10v32h-1c.166-10.339 0-20.672-.5-31-.708.881-1.542 1.547-2.5 2a8.43 8.43 0 0 1-4-.5 48.299 48.299 0 0 0-11-7.5l3-2.5c-2.836.085-5.169 1.251-7 3.5h-24a345.099 345.099 0 0 1-3-12.5c.028-1.07.361-1.903 1-2.5 12.048.645 23.715-.022 35-2z"/><path style="opacity:1" fill="#9fafb2" d="M324.5 377.5c5.68 1.28 11.347 1.28 17 0v9c-.639.597-.972 1.43-1 2.5a345.099 345.099 0 0 0 3 12.5c-1.774 4.261-2.774 8.927-3 14-5.333-1.333-10.667-1.333-16 0v-13c-8.998-.633-17.998-.8-27-.5a473.085 473.085 0 0 0 24 15.5c-6.14 4.725-8.807 11.058-8 19a96.578 96.578 0 0 1-2-6.5 319.83 319.83 0 0 1-29-18.5 21.341 21.341 0 0 0 9-1.5 22.804 22.804 0 0 1 5-8 436.73 436.73 0 0 1-9-6.5 34.163 34.163 0 0 0 1-10 454.485 454.485 0 0 0 36 1v-9z"/><path style="opacity:1" fill="#152323" d="m435.5 359.5 4 3c-.703 2.216-2.036 4.049-4 5.5-6.37 4.18-12.703 8.347-19 12.5a341.749 341.749 0 0 0 2 9.5c7.028 4.178 14.028 8.345 21 12.5 1.034 2.3.367 2.966-2 2-1 1.667-2.333 3-4 4a176.05 176.05 0 0 0-2.5 8c-.383-.556-.883-.889-1.5-1a291.08 291.08 0 0 1-19-10.5c-1.333-.667-2.667-.667-4 0a285.561 285.561 0 0 0-1 33.5c-4.693-1.86-9.693-2.526-15-2v-31c-5.492-1.151-9.159-4.485-11-10 2.12-.43 4.12-.43 6 0 3.035-1.421 5.535-3.421 7.5-6a7.248 7.248 0 0 0 2.5 2c1.35-1.45 3.016-2.117 5-2-.219-1.175.114-2.175 1-3a81.805 81.805 0 0 0 7-2c.83-1.635.997-3.302.5-5 1.972-.805 3.472-2.139 4.5-4a4.457 4.457 0 0 1 1.5 2c.317-1.801.984-2.134 2-1a49.45 49.45 0 0 1 14.5-10c1.119-2.587 2.453-4.92 4-7z"/><path style="opacity:1" fill="#1f2d30" d="M170.5 325.5v96a97.742 97.742 0 0 0-19 0v-80a1264.427 1264.427 0 0 0 3 40 147.728 147.728 0 0 0 3-24h3c.358 3.398-.308 6.565-2 9.5.235.873.569 1.707 1 2.5a41.71 41.71 0 0 0-2.5 13 160.723 160.723 0 0 0 .5 31 68.159 68.159 0 0 0 3-16h6a185.15 185.15 0 0 1 2-35 16.77 16.77 0 0 0-2-6.5 14.719 14.719 0 0 0 2.5-6.5c.171-8.177.671-16.177 1.5-24z"/><path style="opacity:1" fill="#f6fafa" d="M324.5 415.5c-.79.901-1.79 1.568-3 2a473.085 473.085 0 0 1-24-15.5c9.002-.3 18.002-.133 27 .5v13z"/><path style="opacity:1" fill="#f5f9fa" d="M343.5 401.5h24a5717.029 5717.029 0 0 1-21 14.5 4.934 4.934 0 0 1-3 .5 5.727 5.727 0 0 1-3-1c.226-5.073 1.226-9.739 3-14z"/><path style="opacity:1" fill="#f7f9f8" d="M429.5 415.5c-.295 2.235.039 4.235 1 6v3c.262 1.478-.071 2.811-1 4a195.346 195.346 0 0 0-19 13h-2c-1.527.073-2.527-.594-3-2v-1a285.561 285.561 0 0 1 1-33.5c1.333-.667 2.667-.667 4 0a291.08 291.08 0 0 0 19 10.5z"/><path style="opacity:1" fill="#253434" d="M455.5 363.5h1c-.167 14.004 0 28.004.5 42 2.454 1.941 4.287 4.275 5.5 7-.617.111-1.117.444-1.5 1-1.667-3.157-3.167-3.324-4.5-.5a2687.998 2687.998 0 0 0-12 8l-5 1c.951.718 1.117 1.551.5 2.5-1.113-1.211-2.28-1.211-3.5 0-1.104-1.131-.771-1.965 1-2.5-1-.667-2-.667-3 0-.53 1.744-.53 3.244 0 4.5-1.524-1.983-2.524-4.316-3-7-.798.457-1.131 1.124-1 2-.961-1.765-1.295-3.765-1-6 .617.111 1.117.444 1.5 1a176.05 176.05 0 0 1 2.5-8c1.667-1 3-2.333 4-4 2.367.966 3.034.3 2-2 .904-.709 1.237-1.709 1-3a39.445 39.445 0 0 0 2.5 5c1.395-.93 2.895-.93 4.5 0 1.213-.247 1.88-.914 2-2 1.431-.381 2.264-1.381 2.5-3l1 5c1.016-1.134 1.683-.801 2 1 .5-13.996.667-27.996.5-42z"/><path style="opacity:1" fill="#9dadb3" d="M386.5 408.5a8738.2 8738.2 0 0 0-32 21 168.522 168.522 0 0 1-2 6c.389-3.914-.278-7.58-2-11-1.646-3.31-3.98-5.977-7-8a4.934 4.934 0 0 0 3-.5 5717.029 5717.029 0 0 0 21-14.5c1.831-2.249 4.164-3.415 7-3.5l-3 2.5a48.299 48.299 0 0 1 11 7.5 8.43 8.43 0 0 0 4 .5z"/><path style="opacity:1" fill="#f7faf9" d="m258.5 405.5 2 34c-.79.901-1.79 1.568-3 2l-2-1a4029.308 4029.308 0 0 1-21-14c1.562-3.474 2.395-7.14 2.5-11 .383-.556.883-.889 1.5-1 4.972-3.156 9.972-6.323 15-9.5 1.765-.64 3.432-.473 5 .5z"/><path style="opacity:1" fill="#7c8a8f" d="M287.5 395.5a436.73 436.73 0 0 0 9 6.5 22.804 22.804 0 0 0-5 8 21.341 21.341 0 0 1-9 1.5 36.16 36.16 0 0 1-7-4c-.086-.996.248-1.829 1-2.5 5.062-1.563 8.728-4.729 11-9.5z"/><path style="opacity:1" fill="#f9fcfa" d="M275.5 407.5a36.16 36.16 0 0 0 7 4 319.83 319.83 0 0 0 29 18.5 96.578 96.578 0 0 0 2 6.5c.72 4.445 2.72 8.112 6 11 .645 1.312 1.645 2.312 3 3a113.23 113.23 0 0 1 .5 26 259.812 259.812 0 0 0-29.5-17c0-.667-.333-1-1-1-.372-3.797-1.706-7.13-4-10-3.284-4.5-7.617-7.833-13-10v-31z"/><path style="opacity:1" fill="#fafcfb" d="M389.5 437.5a32.488 32.488 0 0 1-5 4 11.743 11.743 0 0 0-5 3h-3a60.27 60.27 0 0 0-4 14c-.667 0-1 .333-1 1a53748.283 53748.283 0 0 1-28 16c-.993-8.15-1.326-16.483-1-25 6.068-3.125 9.401-8.125 10-15a168.522 168.522 0 0 0 2-6 8738.2 8738.2 0 0 1 32-21c.958-.453 1.792-1.119 2.5-2 .5 10.328.666 20.661.5 31z"/><path style="opacity:1" fill="#1f2d2e" d="M224.5 363.5c-.284 1.915.049 3.581 1 5-.167 11.338 0 22.672.5 34a280.528 280.528 0 0 1 13.5-8c3.17 1.831 5.67 1.164 7.5-2 .353 1.574 1.02 3.241 2 5 .71-1.473 1.876-2.14 3.5-2v-4c2.231 1.124 4.564 1.624 7 1.5l2-1c-1.333-.667-1.333-1.333 0-2a112.07 112.07 0 0 0 13-5.5c1.456-6.184 5.456-9.184 12-9-1.95 3.123-4.616 5.29-8 6.5-1.167 2.5-3 4.333-5.5 5.5a6.802 6.802 0 0 1-1.5 3 58.568 58.568 0 0 0-16 7.5c1.544.29 2.877.956 4 2-1.595-.617-2.928-.284-4 1 2.118.26 3.784 1.26 5 3-.916.278-1.582.778-2 1.5-1.568-.973-3.235-1.14-5-.5a8598.033 8598.033 0 0 0-15 9.5c-.689-1.274-1.523-1.274-2.5 0a12.472 12.472 0 0 0-4-5c-3.531 2.871-6.364 6.371-8.5 10.5a29.927 29.927 0 0 1-9 2 37.933 37.933 0 0 1-8.5 5.5c1.979 1.769 3.145 3.769 3.5 6a89.875 89.875 0 0 0-19 11c-1.609.406-2.943.406-4 0a13.015 13.015 0 0 1 4-4.5c-1.167-.5-2-1.333-2.5-2.5-.967 1.178-1.467 2.511-1.5 4-1.268-.928-2.601-1.095-4-.5a156.04 156.04 0 0 1-22 20 32.462 32.462 0 0 1-8 .5v4c-3.817.491-6.983 2.158-9.5 5-.718-.951-1.551-1.117-2.5-.5-.284 1.956-.284 4.123 0 6.5-5.631-3.621-9.298-8.621-11-15-.252-2.82.248-5.486 1.5-8 1.423 5.121 2.423 5.121 3 0 .667 2.667 1.333 2.667 2 0 .674 1.078 1.674 1.745 3 2 5.782-.688 6.282-1.521 1.5-2.5l4-1a56.738 56.738 0 0 1-6.5-1.5c-2.238 1.399-2.905.732-2-2 2.737 1.11 5.571 1.277 8.5.5 2.462-2.536 5.462-4.036 9-4.5 3.342-5.837 8.342-8.171 15-7v-3c3.831-1.478 7.165-3.812 10-7 .65.304 1.317.637 2 1l19-10.5a84.567 84.567 0 0 1 9.5-12.5c.5-13.663.667-27.329.5-41 4.993-.416 9.993-.749 15-1z"/><path style="opacity:1" fill="#182424" d="M238.5 414.5c-.617.111-1.117.444-1.5 1-.105 3.86-.938 7.526-2.5 11a4029.308 4029.308 0 0 0 21 14 13.227 13.227 0 0 0-2 5h-3a38.146 38.146 0 0 0-3 8h-1a198.398 198.398 0 0 0-37-20c-.355-2.231-1.521-4.231-3.5-6a37.933 37.933 0 0 0 8.5-5.5 29.927 29.927 0 0 0 9-2c2.136-4.129 4.969-7.629 8.5-10.5a12.472 12.472 0 0 1 4 5c.977-1.274 1.811-1.274 2.5 0z"/><path style="opacity:1" fill="#263537" d="M340.5 415.5c.891.61 1.891.943 3 1 3.02 2.023 5.354 4.69 7 8-1.568 2.431-3.068 2.431-4.5 0l-1 4a4.933 4.933 0 0 0-2.5-1c-1.548 1.876-3.548 2.876-6 3 .078 2.987-1.089 3.653-3.5 2-1.169.509-2.002 1.342-2.5 2.5-3.547.307-6.88 1.14-10 2.5a112.404 112.404 0 0 0-1 10c-3.28-2.888-5.28-6.555-6-11-.807-7.942 1.86-14.275 8-19 1.21-.432 2.21-1.099 3-2 5.333-1.333 10.667-1.333 16 0z"/><path style="opacity:1" fill="#182627" d="M462.5 412.5c.719 1.591 1.719 3.091 3 4.5 6.573 3.109 12.573 6.942 18 11.5-2.834 3.919-5.501 7.419-8 10.5l2 1c-.578 1.417-1.578 2.25-3 2.5a472.263 472.263 0 0 1-17.5-10c-2.235 1.702-4.735 2.702-7.5 3-6.48.676-11.98-1.324-16.5-6a38.715 38.715 0 0 0-2.5-5v-3c-.131-.876.202-1.543 1-2 .476 2.684 1.476 5.017 3 7-.53-1.256-.53-2.756 0-4.5 1-.667 2-.667 3 0-1.771.535-2.104 1.369-1 2.5 1.22-1.211 2.387-1.211 3.5 0 .617-.949.451-1.782-.5-2.5l5-1c3.973-2.664 7.973-5.331 12-8 1.333-2.824 2.833-2.657 4.5.5.383-.556.883-.889 1.5-1z"/><path style="opacity:1" fill="#2a383a" d="M515.5 421.5c2.25.63 4.25 1.63 6 3-2.342.275-2.342 1.108 0 2.5-1.049.492-2.049.326-3-.5-1.196.346-1.196.846 0 1.5a15.256 15.256 0 0 0-4.5 1.5l-1-2c-1.676 4.692-4.342 8.692-8 12a4.457 4.457 0 0 0-1.5-2 13.271 13.271 0 0 1-5.5 5c-.667 4-1.333 4-2 0-2.382 2.791-5.215 3.791-8.5 3-1.843 2.922-4.51 4.255-8 4-.239 1.967.094 3.801 1 5.5-2.579.432-4.079-.735-4.5-3.5-.002 2.551-.836 4.551-2.5 6 1.128-5.05 1.462-10.05 1-15 1.422-.25 2.422-1.083 3-2.5l-2-1c2.499-3.081 5.166-6.581 8-10.5a60.05 60.05 0 0 0 11-7c7.268-1.184 14.268-1.184 21 0z"/><path style="opacity:1" fill="#303d3f" d="M171.5 260.5v18c-.167 48.001 0 96.001.5 144a50.725 50.725 0 0 1 6.5 5c-2.835 3.188-6.169 5.522-10 7v3c-6.658-1.171-11.658 1.163-15 7-3.538.464-6.538 1.964-9 4.5-2.929.777-5.763.61-8.5-.5-.905 2.732-.238 3.399 2 2a56.738 56.738 0 0 0 6.5 1.5l-4 1c4.782.979 4.282 1.812-1.5 2.5-1.326-.255-2.326-.922-3-2-.667 2.667-1.333 2.667-2 0-.577 5.121-1.577 5.121-3 0-1.252 2.514-1.752 5.18-1.5 8-4.743-19.84 2.59-33.174 22-40a97.742 97.742 0 0 1 19 0v-141c-.324-6.854.009-13.521 1-20z"/><path style="opacity:1" fill="#f9fbfa" d="M474.5 442.5c.462 4.95.128 9.95-1 15a13140.441 13140.441 0 0 0-118.5 72c-.765-.07-1.265-.403-1.5-1-2.9-3.286-6.567-5.286-11-6v-26l34-22h1l3 2c.333 1 1 1.667 2 2-1.353 3.98-.02 5.313 4 4l12 3a59.968 59.968 0 0 1 13-4.5c1.678-2.194 2.678-4.694 3-7.5a42.302 42.302 0 0 1 3.5-8c.498-2.982.665-5.982.5-9 .421-2.41 1.754-4.243 4-5.5 8.533-6.258 17.533-11.424 27-15.5 2.765-.298 5.265-1.298 7.5-3a472.263 472.263 0 0 0 17.5 10z"/><path style="opacity:1" fill="#0d370b" d="M390.5 436.5c5.307-.526 10.307.14 15 2v1a150.829 150.829 0 0 1-15-2v-1z"/><path style="opacity:1" fill="#0b3608" d="M275.5 437.5v1a53.805 53.805 0 0 0-14 1c.381-1.431 1.381-2.264 3-2.5 3.755-.755 7.422-.589 11 .5z"/><path style="opacity:1" fill="#f9fcfb" d="M209.5 433.5a198.398 198.398 0 0 1 37 20c-.166 5.344.001 10.677.5 16 2.06 2.786 3.56 5.786 4.5 9 3.875.677 7.208 2.51 10 5.5 4.72.221 9.387.721 14 1.5 5.848-1.902 10.515-5.236 14-10a823.477 823.477 0 0 1 33 19 169.926 169.926 0 0 1 1 26 144.375 144.375 0 0 0-13 9 20664.891 20664.891 0 0 0-118.5-72c-.179-3.525-.679-6.859-1.5-10v-3a89.875 89.875 0 0 1 19-11z"/><path style="opacity:1" fill="#68b82f" d="M275.5 438.5c5.383 2.167 9.716 5.5 13 10l-3-2-4-3c-7.823-3.6-15.823-3.934-24-1v-1c1.21-.432 2.21-1.099 3-2h1a53.805 53.805 0 0 1 14-1z"/><path style="opacity:1" fill="#9eafb5" d="M430.5 424.5a38.715 38.715 0 0 1 2.5 5c4.52 4.676 10.02 6.676 16.5 6-9.467 4.076-18.467 9.242-27 15.5-2.246 1.257-3.579 3.09-4 5.5-1.746-5.434-4.413-10.434-8-15a195.346 195.346 0 0 1 19-13c.929-1.189 1.262-2.522 1-4z"/><path style="opacity:1" fill="#152424" d="M536.5 441.5c4.281 16.668-1.052 29.168-16 37.5-9.59 4.72-18.923 4.554-28-.5 1.291-.973 1.291-1.973 0-3-2.017-.719-3.683-1.886-5-3.5a6.201 6.201 0 0 1 2-3.5c4.835-3.695 10.169-6.195 16-7.5a26.852 26.852 0 0 1 6-3.5c.387-3.718 2.053-6.718 5-9a867.355 867.355 0 0 1 11-6 3.647 3.647 0 0 1 1.5 1l1-4c1.016 1.134 1.683.801 2-1 .805 2.719 2.305 3.719 4.5 3z"/><path style="opacity:1" fill="#20470f" d="m255.5 440.5 2 1v1l-4 3a13.227 13.227 0 0 1 2-5z"/><path style="opacity:1" fill="#152324" d="M190.5 444.5v3c.964 8.602-1.203 16.269-6.5 23l-1-1c-.772 1.349-1.939 2.182-3.5 2.5l2 1c-.916.278-1.582.778-2 1.5-12.577 9.626-25.577 10.293-39 2-.284-2.377-.284-4.544 0-6.5.949-.617 1.782-.451 2.5.5 2.517-2.842 5.683-4.509 9.5-5v-4a32.462 32.462 0 0 0 8-.5 156.04 156.04 0 0 0 22-20c1.399-.595 2.732-.428 4 .5.033-1.489.533-2.822 1.5-4 .5 1.167 1.333 2 2.5 2.5a13.015 13.015 0 0 0-4 4.5c1.057.406 2.391.406 4 0z"/><path style="opacity:1" fill="#62c70f" d="M281.5 443.5a81.316 81.316 0 0 1-3 2.5l1 1-2.5.5c-4.093-2.951-5.593-3.618-4.5-2-.203 1.89.463 3.39 2 4.5-1.981.605-2.315 1.605-1 3a12.93 12.93 0 0 1-5 .5 8.43 8.43 0 0 1-.5 4c-5.53 3.144-10.197 7.144-14 12l-1-2c-.77 1.098-1.603 1.098-2.5 0-1.096-3.913-1.262-7.913-.5-12 1.707-2.409 2.54-5.075 2.5-8l1-2 4-3c8.177-2.934 16.177-2.6 24 1z"/><path style="opacity:1" fill="#0e340d" d="m253.5 445.5-1 2a40.943 40.943 0 0 1-5 7v-1a38.146 38.146 0 0 1 3-8h3z"/><path style="opacity:1" fill="#4cba0b" d="m281.5 443.5 4 3c1.115 1.807 1.781 3.807 2 6a7.93 7.93 0 0 1-1 3.5 28.043 28.043 0 0 0-5 1.5 151.471 151.471 0 0 1-14 8.5 34.832 34.832 0 0 0-7 7 11.333 11.333 0 0 0-3.5 1.5c-.227-3.436-1.727-4.436-4.5-3-1.1-1.105-1.767-2.438-2-4 .897 1.098 1.73 1.098 2.5 0l1 2c3.803-4.856 8.47-8.856 14-12a8.43 8.43 0 0 0 .5-4 12.93 12.93 0 0 0 5-.5c-1.315-1.395-.981-2.395 1-3-1.537-1.11-2.203-2.61-2-4.5-1.093-1.618.407-.951 4.5 2l2.5-.5-1-1a81.316 81.316 0 0 0 3-2.5z"/><path style="opacity:1" fill="#54bd11" d="M389.5 437.5h1c4.832.9 9.832 1.566 15 2 .473 1.406 1.473 2.073 3 2a12.066 12.066 0 0 0 3 4c-.909 3.37-2.242 6.703-4 10a638.728 638.728 0 0 1-25.5 16c-.383-.556-.883-.889-1.5-1a46.052 46.052 0 0 0 1.5-8c.837 1.507 2.004 2.007 3.5 1.5a43.608 43.608 0 0 0 8-11.5l4-3 1 2c2.781-1.287 3.448-3.287 2-6a3.647 3.647 0 0 0-1.5 1 728.46 728.46 0 0 0-5-6 28.496 28.496 0 0 1-9.5 1 32.488 32.488 0 0 0 5-4z"/><path style="opacity:1" fill="#dffaca" d="M379.5 444.5c-2.959 4.195-4.959 8.861-6 14h-1a60.27 60.27 0 0 1 4-14h3z"/><path style="opacity:1" fill="#1c2b2b" d="M350.5 424.5c1.722 3.42 2.389 7.086 2 11-.599 6.875-3.932 11.875-10 15-1.157 8.824-1.324 17.824-.5 27 .717-.544 1.217-1.211 1.5-2 9.361-5.345 18.694-10.679 28-16-.054 3.789.613 7.789 2 12 1.355.688 2.355 1.688 3 3l-34 22c-.993 8.484-1.326 17.151-1 26a12.93 12.93 0 0 1-5-.5l3-1a128.507 128.507 0 0 0-16-.5 169.926 169.926 0 0 0-1-26 823.477 823.477 0 0 0-33-19v-1c3.402-4.329 4.735-9.329 4-15a259.812 259.812 0 0 1 29.5 17 113.23 113.23 0 0 0-.5-26c-1.355-.688-2.355-1.688-3-3 .165-3.153.498-6.486 1-10 3.12-1.36 6.453-2.193 10-2.5.498-1.158 1.331-1.991 2.5-2.5 2.411 1.653 3.578.987 3.5-2 2.452-.124 4.452-1.124 6-3a4.933 4.933 0 0 1 2.5 1l1-4c1.432 2.431 2.932 2.431 4.5 0z"/><path style="opacity:1" fill="#65cd11" d="M380.5 470.5c-.275 2.342-1.108 2.342-2.5 0-.898-2.569-2.065-4.902-3.5-7-.951-1.419-1.284-3.085-1-5 1.041-5.139 3.041-9.805 6-14a11.743 11.743 0 0 1 5-3 28.496 28.496 0 0 0 9.5-1 728.46 728.46 0 0 1 5 6 3.647 3.647 0 0 1 1.5-1c1.448 2.713.781 4.713-2 6l-1-2-4 3a43.608 43.608 0 0 1-8 11.5c-1.496.507-2.663.007-3.5-1.5a46.052 46.052 0 0 1-1.5 8z"/><path style="opacity:1" fill="#378829" d="M408.5 441.5h2c3.587 4.566 6.254 9.566 8 15a40.914 40.914 0 0 1-.5 9 42.302 42.302 0 0 0-3.5 8c-6.631 7.581-14.965 10.414-25 8.5-2.904-.133-5.238-1.3-7-3.5-1-.333-1.667-1-2-2 3.145-.007 5.811.993 8 3 6.382 1.395 12.715.728 19-2a110.706 110.706 0 0 0 7.5-12c.667-5 .667-10 0-15-.383-.556-.883-.889-1.5-1l-2-4a12.066 12.066 0 0 1-3-4z"/><path style="opacity:1" fill="#28980c" d="m285.5 446.5 3 2c.249 2.502.583 5.002 1 7.5a61.012 61.012 0 0 0-2.5 14.5c-2.164 1.98-3.664 4.313-4.5 7-3.911 1.679-8.078 2.679-12.5 3-4.819.108-9.319-.892-13.5-3-.557-2.55-1.89-4.55-4-6 2.773-1.436 4.273-.436 4.5 3a11.333 11.333 0 0 1 3.5-1.5 34.832 34.832 0 0 1 7-7c4.8-2.569 9.467-5.402 14-8.5a28.043 28.043 0 0 1 5-1.5 7.93 7.93 0 0 0 1-3.5c-.219-2.193-.885-4.193-2-6z"/><path style="opacity:1" fill="#37a410" d="m411.5 445.5 2 4c-.962 1.953-1.295 3.786-1 5.5-6.106 2.135-11.273 5.635-15.5 10.5-.538 3.723-2.038 6.89-4.5 9.5a3.943 3.943 0 0 0 1 2c1.438.219 2.771.719 4 1.5a21.127 21.127 0 0 1-9 1c-2.189-2.007-4.855-3.007-8-3l-3-2a44.754 44.754 0 0 1-3-11c1.435 2.098 2.602 4.431 3.5 7 1.392 2.342 2.225 2.342 2.5 0 .617.111 1.117.444 1.5 1a638.728 638.728 0 0 0 25.5-16c1.758-3.297 3.091-6.63 4-10z"/><path style="opacity:1" fill="#1c2a2b" d="M521.5 424.5c7.486 3.485 12.486 9.152 15 17-2.195.719-3.695-.281-4.5-3-.317 1.801-.984 2.134-2 1l-1 4a3.647 3.647 0 0 0-1.5-1 867.355 867.355 0 0 0-11 6c-2.947 2.282-4.613 5.282-5 9a26.852 26.852 0 0 0-6 3.5c-5.831 1.305-11.165 3.805-16 7.5a6.201 6.201 0 0 0-2 3.5c1.317 1.614 2.983 2.781 5 3.5 1.291 1.027 1.291 2.027 0 3-2.64-1.493-5.307-2.66-8-3.5l-119 72.5a345.94 345.94 0 0 1-2 8v-8h-5c1.408-7.687-.092-8.02-4.5-1l-1-1c-2.388 4.054-5.888 6.554-10.5 7.5a125.353 125.353 0 0 1-7 8.5c-6.975 3.639-11.975 8.639-15 15 2.216 1.306 4.549 1.806 7 1.5-2.432-1.087-2.098-1.587 1-1.5v3a32.462 32.462 0 0 1 8 .5c-2.865.183-5.531.683-8 1.5-17.83-4.177-26.83-15.511-27-34a115955.718 115955.718 0 0 0-122-73c.418-.722 1.084-1.222 2-1.5l-2-1c1.561-.318 2.728-1.151 3.5-2.5l1 1c5.297-6.731 7.464-14.398 6.5-23 .821 3.141 1.321 6.475 1.5 10a20664.891 20664.891 0 0 1 118.5 72 104.957 104.957 0 0 0-6.5 10c.527 3.527.36 6.694-.5 9.5.13 1.059.63 1.892 1.5 2.5 2.228-1.613 4.728-2.28 7.5-2-.219 1.175.114 2.175 1 3a122.291 122.291 0 0 0 17-7.5 82.476 82.476 0 0 0 8.5-8.5 4.934 4.934 0 0 0 .5-3c2.041-.354 3.874-.354 5.5 0 1.74-1.684 2.906-3.518 3.5-5.5 1.608-.658 2.775-.158 3.5 1.5.383-.556.883-.889 1.5-1 .235.597.735.93 1.5 1 39.376-24.21 78.876-48.21 118.5-72 1.664-1.449 2.498-3.449 2.5-6 .421 2.765 1.921 3.932 4.5 3.5-.906-1.699-1.239-3.533-1-5.5 3.49.255 6.157-1.078 8-4 3.285.791 6.118-.209 8.5-3 .667 4 1.333 4 2 0a13.271 13.271 0 0 0 5.5-5 4.457 4.457 0 0 1 1.5 2c3.658-3.308 6.324-7.308 8-12l1 2a15.256 15.256 0 0 1 4.5-1.5c-1.196-.654-1.196-1.154 0-1.5.951.826 1.951.992 3 .5-2.342-1.392-2.342-2.225 0-2.5z"/><path style="opacity:1" fill="#e7fce1" d="M246.5 453.5h1v1c-.752 8.24 1.415 15.573 6.5 22 .671.752 1.504 1.086 2.5 1 3.433 3.624 7.767 5.291 13 5a34.953 34.953 0 0 0 9-1.5 110.962 110.962 0 0 0 10-6.5h1v1c-3.485 4.764-8.152 8.098-14 10a116.814 116.814 0 0 0-14-1.5c-2.792-2.99-6.125-4.823-10-5.5-.94-3.214-2.44-6.214-4.5-9a128.507 128.507 0 0 1-.5-16z"/><path style="opacity:1" fill="#e2fadb" d="M414.5 473.5c-.322 2.806-1.322 5.306-3 7.5a59.968 59.968 0 0 0-13 4.5l-12-3c-4.02 1.313-5.353-.02-4-4 1.762 2.2 4.096 3.367 7 3.5 10.035 1.914 18.369-.919 25-8.5z"/><path style="opacity:1" fill="#358429" d="M288.5 448.5c2.294 2.87 3.628 6.203 4 10a72.03 72.03 0 0 1-4 16 110.962 110.962 0 0 1-10 6.5 34.953 34.953 0 0 1-9 1.5c-5.233.291-9.567-1.376-13-5 4.181 2.108 8.681 3.108 13.5 3 4.422-.321 8.589-1.321 12.5-3 .836-2.687 2.336-5.02 4.5-7a61.012 61.012 0 0 1 2.5-14.5 114.265 114.265 0 0 1-1-7.5z"/><path style="opacity:1" fill="#09280f" d="M292.5 458.5c.667 0 1 .333 1 1 .735 5.671-.598 10.671-4 15h-1a72.03 72.03 0 0 0 4-16z"/><path style="opacity:1" fill="#113d19" d="M371.5 459.5c0-.667.333-1 1-1h1c-.284 1.915.049 3.581 1 5a44.754 44.754 0 0 0 3 11h-1c-.645-1.312-1.645-2.312-3-3-1.387-4.211-2.054-8.211-2-12z"/><path style="opacity:1" fill="#20900c" d="M413.5 449.5c.617.111 1.117.444 1.5 1 .667 5 .667 10 0 15a110.706 110.706 0 0 1-7.5 12c-6.285 2.728-12.618 3.395-19 2a21.127 21.127 0 0 0 9-1 10.258 10.258 0 0 0-4-1.5 3.943 3.943 0 0 1-1-2c2.462-2.61 3.962-5.777 4.5-9.5 4.227-4.865 9.394-8.365 15.5-10.5-.295-1.714.038-3.547 1-5.5z"/><path style="opacity:1" fill="#c2cbca" d="M342.5 450.5c-.326 8.517.007 16.85 1 25-.283.789-.783 1.456-1.5 2-.824-9.176-.657-18.176.5-27z"/><path style="opacity:1" fill="#79ba46" d="M252.5 447.5c.04 2.925-.793 5.591-2.5 8-.762 4.087-.596 8.087.5 12 .233 1.562.9 2.895 2 4 2.11 1.45 3.443 3.45 4 6-.996.086-1.829-.248-2.5-1-5.085-6.427-7.252-13.76-6.5-22a40.943 40.943 0 0 0 5-7z"/><path style="opacity:1" fill="#2a383a" d="M342.5 496.5v26c4.433.714 8.1 2.714 11 6-.617.111-1.117.444-1.5 1-.725-1.658-1.892-2.158-3.5-1.5-.594 1.982-1.76 3.816-3.5 5.5-1.626-.354-3.459-.354-5.5 0a4.934 4.934 0 0 1-.5 3 82.476 82.476 0 0 1-8.5 8.5 122.291 122.291 0 0 1-17 7.5c-.886-.825-1.219-1.825-1-3-2.772-.28-5.272.387-7.5 2-.87-.608-1.37-1.441-1.5-2.5.86-2.806 1.027-5.973.5-9.5a104.957 104.957 0 0 1 6.5-10 144.375 144.375 0 0 1 13-9c5.344-.166 10.677.001 16 .5l-3 1a12.93 12.93 0 0 0 5 .5c-.326-8.849.007-17.516 1-26z"/><path style="opacity:1" fill="#132223" d="M363.5 555.5c-4.188 18.5-15.854 27.167-35 26 2.469-.817 5.135-1.317 8-1.5a32.462 32.462 0 0 0-8-.5v-3c-3.098-.087-3.432.413-1 1.5-2.451.306-4.784-.194-7-1.5 3.025-6.361 8.025-11.361 15-15 2.446-2.717 4.78-5.55 7-8.5 4.612-.946 8.112-3.446 10.5-7.5l1 1c4.408-7.02 5.908-6.687 4.5 1h5v8z"/><path style="opacity:1" fill="#eff3f6" d="M256.5 623.5c50.668-.167 101.334 0 152 .5 11.984.072 23.65 1.905 35 5.5 1.094 1.368.76 2.535-1 3.5a258.073 258.073 0 0 1-42 5c-42.667.667-85.333.667-128 0a245.49 245.49 0 0 1-32-2.5v-4c3.808.337 7.474-.163 11-1.5a49.944 49.944 0 0 1-11 0c-2.667-.667-2.667-1.333 0-2l24-1a130.373 130.373 0 0 1-16-1.5 345.94 345.94 0 0 0 8-2z"/></svg>